<svg xmlns="http://www.w3.org/2000/svg" width="1024" height="1024" viewBox="0 0 1024 1024">
<g>
<path d="M 546.50 998.98 C533.99,999.95 498.27,1000.93 497.65,1000.32 C497.55,1000.22 489.17,999.41 479.03,998.53 C468.89,997.65 454.75,996.07 447.62,995.02 C440.49,993.97 434.40,993.16 434.08,993.22 C433.76,993.27 432.83,993.05 432.00,992.72 C428.93,991.49 414.77,989.02 413.90,989.56 C413.41,989.87 413.00,989.73 413.00,989.26 C413.00,988.79 410.19,987.83 406.75,987.13 C389.89,983.70 360.00,974.34 337.00,965.29 C251.18,931.50 174.35,871.62 119.80,796.00 C67.74,723.83 36.29,638.30 28.41,547.50 C26.59,526.52 26.89,480.29 28.97,461.50 C39.83,363.16 76.57,273.60 136.43,199.51 C183.99,140.65 241.57,95.49 309.53,63.76 C452.32,-2.91 615.56,3.79 752.03,81.93 C809.43,114.80 857.79,157.49 897.66,210.50 C991.28,334.96 1021.52,496.18 978.94,643.84 C977.30,649.53 975.81,654.93 975.63,655.84 C975.45,656.75 975.02,658.17 974.67,659.00 C973.62,661.51 966.78,681.43 966.61,682.50 C966.52,683.05 966.17,683.95 965.84,684.50 C964.42,686.84 954.56,711.57 954.77,712.25 C954.90,712.66 954.55,713.00 954.00,713.00 C953.45,713.00 953.09,713.34 953.20,713.75 C953.31,714.16 951.75,717.71 949.75,721.63 C947.74,725.55 946.37,729.04 946.71,729.38 C947.05,729.72 946.78,730.00 946.11,730.00 C945.43,730.00 945.16,730.45 945.50,731.00 C945.84,731.55 945.61,732.00 945.00,732.00 C944.39,732.00 944.16,732.45 944.50,733.00 C944.84,733.55 944.72,734.00 944.24,734.00 C943.76,734.00 942.05,736.81 940.43,740.25 C938.82,743.69 937.05,746.83 936.50,747.23 C935.83,747.72 935.83,747.98 936.50,748.00 C937.10,748.02 937.07,748.32 936.43,748.77 C935.36,749.49 924.00,768.39 924.00,769.43 C924.00,769.73 923.21,770.90 922.25,772.02 C921.29,773.15 920.65,774.34 920.84,774.67 C921.02,775.00 920.77,775.55 920.28,775.89 C919.04,776.73 906.00,796.02 906.00,797.00 C906.00,797.43 905.33,798.05 904.50,798.36 C903.67,798.68 903.00,799.63 903.00,800.47 C903.00,801.31 902.59,802.00 902.08,802.00 C901.58,802.00 900.14,803.69 898.89,805.75 C897.63,807.81 896.02,809.86 895.30,810.30 C894.59,810.74 894.00,811.75 894.00,812.55 C894.00,813.35 893.64,814.00 893.19,814.00 C892.75,814.00 891.06,815.84 889.44,818.09 C887.82,820.34 885.38,823.45 884.00,825.01 C876.94,832.99 875.07,835.12 870.00,840.90 C860.01,852.31 838.43,873.36 827.13,882.71 C823.02,886.11 817.23,891.23 814.39,893.97 C813.24,895.09 811.92,896.00 811.48,896.00 C811.03,896.00 809.96,896.65 809.08,897.45 C804.05,902.07 802.95,903.00 802.53,903.00 C801.52,903.00 793.00,909.43 793.00,910.19 C793.00,910.64 792.39,911.00 791.65,911.00 C790.90,911.00 789.08,912.12 787.59,913.50 C786.11,914.88 784.47,916.00 783.95,916.00 C783.43,916.00 783.00,916.45 783.00,917.00 C783.00,917.55 782.33,918.00 781.50,918.00 C780.67,918.00 780.00,918.45 780.00,919.00 C780.00,919.55 779.33,920.00 778.50,920.00 C777.67,920.00 777.00,920.45 777.00,921.00 C777.00,921.55 776.33,922.00 775.50,922.00 C774.67,922.00 774.00,922.45 774.00,923.00 C774.00,923.55 773.33,924.00 772.50,924.00 C771.67,924.00 771.00,924.40 771.00,924.89 C771.00,925.38 769.88,926.07 768.50,926.41 C767.12,926.76 766.00,927.48 766.00,928.02 C766.00,928.56 765.36,929.00 764.57,929.00 C763.79,929.00 762.53,929.56 761.79,930.25 C761.04,930.94 757.97,932.81 754.97,934.42 C751.96,936.03 749.28,937.60 749.00,937.92 C748.72,938.24 741.75,941.96 733.50,946.18 C716.19,955.05 698.79,962.75 681.00,969.40 C674.12,971.98 667.60,974.52 666.50,975.05 C664.12,976.20 655.91,978.51 631.00,985.07 C620.83,987.74 612.50,989.99 612.50,990.05 C612.50,990.11 611.38,990.28 610.00,990.43 C605.72,990.89 593.58,993.11 592.00,993.73 C591.17,994.05 590.02,994.24 589.43,994.15 C588.84,994.07 586.14,994.46 583.43,995.04 C576.33,996.54 571.78,997.02 546.50,998.98 ZM 369.00 866.90 C445.04,868.80 683.18,867.76 711.93,865.41 C718.31,864.88 719.76,864.40 722.18,861.97 L 725.00 859.15 L 725.00 841.65 C725.00,824.31 724.98,824.13 722.43,821.10 C720.97,819.36 718.17,817.58 715.97,816.99 C713.83,816.42 710.44,814.40 708.43,812.50 L 704.78 809.06 L 708.79 804.50 C714.49,798.02 716.28,793.64 716.79,784.87 C717.66,770.11 712.66,761.92 694.67,748.60 C688.51,744.05 681.30,737.90 678.64,734.95 C670.53,725.92 665.00,712.52 665.00,701.87 C665.00,699.01 664.51,696.99 663.75,696.72 C661.38,695.87 663.88,694.80 669.83,694.09 C680.70,692.81 685.71,686.54 684.78,675.35 C683.98,665.70 678.52,660.76 667.98,660.17 L 661.03 659.78 L 663.02 657.25 C666.44,652.90 665.63,649.44 659.67,643.01 C656.73,639.84 654.28,636.63 654.22,635.87 C654.15,635.12 652.90,630.67 651.42,626.00 C649.16,618.81 648.75,615.73 648.77,606.00 C648.82,586.45 654.38,569.13 671.28,536.00 C698.82,481.98 709.38,450.32 712.95,411.00 C718.05,354.84 703.12,296.66 671.49,249.47 C640.77,203.64 597.43,172.87 548.38,162.06 C535.71,159.27 517.22,157.68 506.41,158.45 L 497.32 159.10 L 493.04 153.55 C477.30,133.15 445.23,113.06 436.15,117.92 C433.34,119.43 433.27,125.72 435.95,137.17 C438.30,147.21 440.61,163.17 441.53,175.72 L 442.21 184.94 L 445.35 183.42 C448.98,181.67 448.21,182.31 437.39,190.00 C418.51,203.42 400.80,220.63 387.45,238.50 C380.90,247.27 379.15,250.79 374.49,264.50 C369.43,279.38 366.53,284.89 354.22,303.00 C337.51,327.60 317.60,353.68 298.20,376.38 C291.20,384.57 287.84,389.32 287.40,391.66 C286.09,398.64 287.69,406.71 294.50,427.43 C300.69,446.29 301.75,448.75 305.27,452.27 C312.12,459.12 321.65,461.68 330.66,459.10 C333.62,458.25 333.99,458.45 336.94,462.57 C341.52,468.95 350.46,473.03 360.07,473.12 C366.35,473.18 368.13,472.74 374.37,469.64 C382.25,465.72 391.25,458.35 393.53,453.95 C394.55,451.98 395.00,447.91 395.00,440.71 C395.00,431.12 395.24,429.85 398.06,424.20 C403.14,414.03 414.10,405.64 425.50,403.20 C428.25,402.61 436.35,401.87 443.50,401.55 C458.98,400.85 463.31,400.07 473.66,396.06 C498.67,386.39 515.34,366.60 519.36,341.81 C520.63,333.94 520.74,333.70 521.47,337.28 C521.89,339.36 521.91,345.77 521.52,351.53 C520.89,360.86 520.60,362.00 518.93,362.00 C516.45,362.00 514.36,365.45 513.48,371.00 C512.38,377.94 506.35,395.62 502.04,404.53 C493.92,421.33 483.41,434.93 458.05,461.50 C422.98,498.24 404.63,520.99 398.86,534.88 C397.69,537.70 396.32,540.00 395.81,540.00 C395.30,540.00 395.16,540.45 395.50,541.00 C395.84,541.55 395.61,542.00 395.00,542.00 C394.39,542.00 394.16,542.45 394.50,543.00 C394.84,543.55 394.68,544.00 394.14,544.00 C393.20,544.00 390.92,549.53 391.09,551.39 C391.13,551.88 390.75,552.55 390.23,552.89 C386.90,555.07 379.47,583.90 377.94,600.58 C376.06,621.09 378.71,645.07 383.96,655.14 C385.10,657.33 385.78,659.55 385.46,660.07 C385.14,660.58 380.93,661.00 376.09,661.00 C368.61,661.00 366.79,661.34 363.90,663.27 C359.12,666.46 357.00,671.22 357.00,678.79 C357.00,684.72 357.22,685.32 360.89,689.25 C364.29,692.90 365.46,693.49 370.14,693.96 L 375.49 694.50 L 376.35 699.97 C377.45,706.89 375.98,713.78 371.48,722.77 C367.05,731.61 360.05,739.30 348.72,747.79 C331.39,760.77 326.48,767.77 325.40,781.00 C324.65,790.30 327.04,797.55 333.02,804.02 C335.21,806.39 337.00,808.68 337.00,809.09 C337.00,810.67 329.35,816.09 325.74,817.07 C323.07,817.79 321.23,819.21 319.42,821.94 C316.89,825.76 316.87,825.99 317.18,842.99 L 317.50 860.18 L 320.20 862.50 C323.66,865.47 328.20,865.88 369.00,866.90 ZM 404.00 286.88 C404.00,287.37 402.95,287.97 401.68,288.21 L 399.36 288.65 L 401.18 285.08 C402.19,283.11 403.48,279.58 404.05,277.24 C405.29,272.13 409.89,266.61 415.13,263.94 C417.27,262.84 422.78,261.57 427.72,261.03 C432.55,260.50 437.62,259.76 439.00,259.39 L 441.50 258.71 L 438.77 260.91 C437.27,262.12 435.51,264.89 434.86,267.07 C434.21,269.24 432.99,271.58 432.15,272.26 C431.07,273.13 430.83,273.15 431.32,272.32 C432.56,270.26 430.23,269.87 423.77,271.04 C414.77,272.66 407.68,278.82 408.54,284.25 C408.74,285.51 408.15,286.00 406.41,286.00 C405.09,286.00 404.00,286.40 404.00,286.88 ZM 313.22 419.11 C313.75,419.45 314.01,420.80 313.82,422.11 C313.53,424.05 313.13,423.56 311.73,419.57 C309.75,413.94 309.57,410.08 311.04,404.80 C313.01,397.69 320.50,394.71 324.83,399.31 C328.53,403.26 327.03,408.25 322.91,405.70 C321.11,404.59 314.94,408.22 312.35,411.91 C310.86,414.04 311.32,417.89 313.22,419.11 ZM 379.50 696.00 C379.16,696.55 378.46,697.00 377.94,697.00 C377.42,697.00 377.00,696.55 377.00,696.00 C377.00,695.45 377.70,695.00 378.56,695.00 C379.42,695.00 379.84,695.45 379.50,696.00 Z" fill="rgb(23,17,13)"/>
<path d="M 333.05 790.62 C333.96,793.02 333.98,793.02 335.93,791.07 C338.34,788.66 343.76,787.55 348.74,788.47 C356.93,789.96 454.63,788.97 457.23,787.36 C457.75,787.04 465.67,786.60 474.84,786.39 C494.77,785.93 499.94,785.50 504.74,783.92 C508.17,782.79 524.89,781.81 538.86,781.93 C543.01,781.97 547.70,781.16 552.36,779.61 C568.94,774.09 570.21,773.85 572.46,775.87 C575.00,778.14 583.42,778.01 585.77,775.66 C587.12,774.31 587.14,773.87 585.91,772.36 C584.68,770.85 584.70,770.70 586.04,771.20 C587.93,771.91 590.89,769.86 592.41,766.79 C593.17,765.25 594.60,764.40 596.77,764.19 C598.70,764.00 600.00,763.32 600.00,762.49 C600.00,761.66 600.78,761.27 601.99,761.50 C605.00,762.08 606.32,756.33 603.89,753.19 C602.91,751.91 602.36,750.23 602.66,749.44 C602.99,748.59 602.61,748.00 601.73,748.00 C600.91,748.00 599.68,747.33 599.00,746.50 C598.32,745.67 596.91,745.00 595.88,745.00 C594.84,745.00 593.99,744.66 593.97,744.25 C593.95,743.84 592.54,741.96 590.83,740.08 C588.40,737.40 586.82,736.59 583.61,736.37 C581.35,736.21 578.83,736.00 578.00,735.90 C575.68,735.63 573.95,733.90 574.73,732.64 C576.24,730.23 575.89,727.98 573.62,725.54 C572.33,724.14 570.76,723.00 570.14,723.00 C569.51,723.00 569.00,722.63 569.00,722.19 C569.00,721.74 565.74,719.76 561.75,717.78 C554.13,713.99 547.53,712.56 532.50,711.42 C508.10,709.59 507.73,709.57 487.00,709.85 C481.77,709.92 472.55,709.48 466.50,708.88 C460.45,708.27 439.64,707.71 420.25,707.64 C387.40,707.51 385.00,707.38 385.00,705.75 C385.00,703.75 384.56,703.63 382.13,704.93 C381.14,705.46 379.79,705.49 379.00,705.00 C378.00,704.38 377.34,705.46 376.16,709.88 C376.82,706.43 376.87,703.20 376.35,699.97 L 375.49 694.50 L 370.14 693.96 C365.46,693.49 364.29,692.90 360.89,689.25 C357.22,685.32 357.00,684.72 357.00,678.79 C357.00,677.09 357.11,675.54 357.33,674.11 C357.56,674.74 358.28,675.01 359.79,675.31 C362.28,675.81 362.82,676.48 363.35,679.78 C364.01,683.89 365.96,686.26 370.02,687.88 C373.57,689.30 564.13,689.31 561.69,687.89 C560.70,687.31 558.23,686.94 556.19,687.06 C554.16,687.18 550.92,687.17 549.00,687.04 C545.73,686.82 545.67,686.75 548.00,686.00 L 550.50 685.20 L 547.68 685.10 C545.07,685.01 544.98,684.88 546.49,683.36 C547.71,682.14 548.42,682.02 549.26,682.86 C550.92,684.52 552.19,684.27 555.04,681.75 C557.61,679.48 557.90,676.21 555.66,674.80 C553.53,673.46 555.75,672.96 558.61,674.13 C560.20,674.78 562.22,675.23 563.10,675.12 C563.98,675.01 565.25,675.60 565.94,676.42 C567.02,677.73 567.52,677.60 569.84,675.44 C573.99,671.57 585.70,669.07 600.00,669.00 C605.22,668.98 607.04,668.67 606.00,668.00 C604.88,667.27 605.38,667.03 608.00,667.03 C610.62,667.03 611.12,667.27 610.00,668.00 C608.96,668.67 610.48,668.93 615.00,668.83 C621.28,668.70 621.35,668.68 617.00,668.00 C614.53,667.62 625.91,667.23 642.30,667.15 L 672.09 667.00 L 674.55 669.45 C676.50,671.41 677.02,672.98 677.08,677.20 C677.16,682.85 677.46,682.75 678.46,676.75 C678.93,673.98 679.58,673.00 680.96,673.00 C681.99,673.00 683.06,673.56 683.34,674.25 C683.62,674.94 683.88,673.98 683.92,672.13 C683.94,671.40 683.89,670.75 683.74,670.13 C684.27,671.69 684.62,673.42 684.78,675.35 C685.71,686.54 680.70,692.81 669.83,694.09 C663.88,694.80 661.38,695.87 663.75,696.72 C664.51,696.99 665.00,699.01 665.00,701.87 C665.00,710.97 669.03,722.06 675.26,730.73 C671.82,726.22 669.43,721.54 667.52,716.03 C666.44,712.90 665.95,712.54 663.23,712.82 C660.97,713.05 660.03,712.66 659.62,711.32 C659.32,710.32 659.30,711.53 659.58,714.00 C660.82,724.85 670.70,738.57 685.15,749.50 C698.31,759.46 704.26,765.22 706.96,770.64 C709.11,774.93 709.40,775.16 710.13,773.18 C710.57,771.98 711.63,771.00 712.47,771.00 C713.31,771.00 714.00,770.14 714.00,769.09 C714.00,768.75 713.92,768.35 713.78,767.92 C716.39,772.95 717.18,778.25 716.79,784.87 C716.28,793.64 714.49,798.02 708.79,804.50 L 704.78 809.06 L 708.43 812.50 C710.44,814.40 713.83,816.42 715.97,816.99 C716.41,817.11 716.87,817.27 717.33,817.47 C717.12,817.40 716.90,817.33 716.69,817.28 C714.93,816.85 691.22,816.77 664.00,817.11 C604.87,817.84 357.16,817.08 341.50,816.12 C334.71,815.71 330.11,815.84 326.75,816.72 C330.61,815.19 337.00,810.54 337.00,809.09 C337.00,808.68 335.21,806.39 333.02,804.02 C327.04,797.55 324.65,790.30 325.40,781.00 C325.43,780.61 325.47,780.23 325.51,779.85 C325.59,780.57 325.85,780.97 326.31,780.91 C329.83,780.47 330.81,781.18 331.45,784.61 C331.83,786.59 332.54,789.30 333.05,790.62 ZM 369.00 866.90 C328.20,865.88 323.66,865.47 320.20,862.50 L 317.50 860.18 L 317.18 842.99 C316.88,826.57 316.89,825.79 319.17,822.32 C318.17,824.14 318.06,826.38 318.16,833.00 C318.29,841.02 318.42,841.72 319.00,837.50 L 319.69 832.50 L 319.84 836.92 C319.93,839.43 320.71,842.13 321.65,843.16 C322.55,844.16 323.51,847.35 323.77,850.24 C324.03,853.13 324.93,856.29 325.78,857.25 C326.62,858.21 328.25,858.95 329.40,858.88 C331.42,858.77 331.42,858.75 329.50,858.28 C326.19,857.46 325.00,855.93 325.00,852.48 C325.00,849.45 325.23,849.22 328.04,849.41 C332.05,849.69 333.20,848.07 332.42,843.21 C331.88,839.84 332.07,839.12 333.64,838.68 C336.06,838.00 344.00,838.51 346.30,839.49 C347.51,840.00 348.82,839.60 350.30,838.25 C351.51,837.15 354.14,835.95 356.15,835.60 C360.66,834.79 365.11,831.46 364.35,829.46 C363.69,827.75 365.12,827.52 366.69,829.09 C368.44,830.84 371.94,828.49 371.29,826.01 C370.83,824.23 371.25,824.00 374.94,824.00 C377.79,824.00 378.90,824.36 378.42,825.13 C377.91,825.96 379.75,826.07 385.25,825.56 C390.28,825.08 393.01,825.21 393.45,825.92 C394.29,827.28 401.67,827.34 402.50,826.00 C402.90,825.35 434.99,824.98 495.31,824.94 C546.01,824.90 615.62,824.50 650.00,824.05 L 652.81 824.01 C707.90,823.28 714.95,823.19 716.82,826.26 C717.12,826.76 717.29,827.34 717.51,828.03 C718.03,829.68 718.45,829.87 719.58,828.93 C720.35,828.29 721.89,828.00 722.99,828.29 C724.05,828.56 724.59,828.49 724.83,827.86 C725.00,830.59 725.00,834.77 725.00,841.65 L 725.00 859.15 L 722.18 861.97 C719.76,864.40 718.31,864.88 711.93,865.41 C683.18,867.76 445.04,868.80 369.00,866.90 ZM 661.33 644.88 C660.76,644.29 660.12,643.66 659.41,642.97 C656.34,639.96 652.44,635.47 650.74,633.00 C649.05,630.53 646.17,626.82 644.35,624.77 C639.84,619.69 634.48,608.73 632.15,599.84 C628.47,585.79 627.73,577.98 628.26,558.83 C628.81,539.02 630.56,526.81 636.64,500.50 C642.17,476.60 646.97,452.59 649.15,438.00 C652.04,418.60 652.73,384.87 650.62,366.63 C647.67,341.29 640.97,316.61 631.56,296.45 C626.62,285.88 615.83,266.83 612.89,263.50 C611.85,262.32 611.25,260.33 611.43,258.66 C611.81,255.20 607.84,249.83 606.51,251.99 C606.03,252.77 606.08,253.07 606.65,252.72 C607.17,252.39 608.12,252.96 608.75,253.97 C611.00,257.57 607.51,255.57 603.51,250.97 C579.42,223.27 556.48,207.10 526.93,196.99 C510.44,191.34 507.83,189.31 502.59,177.99 C499.91,172.23 497.42,162.25 498.40,161.26 C499.26,160.41 506.67,163.98 508.70,166.22 C509.67,167.29 512.05,171.38 513.98,175.31 C518.27,184.02 520.16,185.37 535.64,190.84 C580.47,206.70 617.63,241.48 641.01,289.50 C649.48,306.89 654.15,319.42 658.45,336.36 C664.26,359.19 665.48,370.25 665.43,399.50 C665.39,428.28 663.73,444.58 657.99,472.61 C653.78,493.20 653.23,496.42 653.08,501.31 C653.03,503.17 652.61,503.88 651.84,503.40 C651.02,502.89 650.87,503.60 651.33,505.91 C651.71,507.82 651.17,512.75 650.00,518.01 C648.04,526.82 648.14,536.00 650.21,536.00 C651.74,536.00 653.69,538.42 653.25,539.76 C653.02,540.44 653.50,541.00 654.31,541.00 C655.96,541.00 657.45,543.71 657.06,546.00 C656.92,546.83 657.04,547.27 657.32,547.00 C658.31,546.03 679.87,502.42 683.97,493.08 C698.64,459.71 707.00,421.35 707.00,387.42 C707.00,361.19 701.15,327.93 692.21,303.41 C690.63,299.06 689.02,294.24 688.63,292.70 C688.00,290.17 688.12,289.99 689.84,290.91 C690.88,291.47 692.09,291.61 692.53,291.21 C692.96,290.82 693.03,291.31 692.67,292.30 C692.28,293.38 692.42,293.86 693.01,293.49 C693.56,293.16 694.00,293.43 694.00,294.11 C694.00,294.78 694.22,295.12 694.48,294.85 C694.91,294.42 694.41,292.46 693.24,289.50 C709.68,327.68 716.68,369.88 712.95,411.00 C709.38,450.32 698.82,481.98 671.28,536.00 C654.38,569.13 648.82,586.45 648.77,606.00 C648.75,615.73 649.16,618.81 651.42,626.00 C652.90,630.67 654.15,635.12 654.22,635.87 C654.28,636.63 656.73,639.84 659.67,643.01 C660.27,643.66 660.83,644.28 661.33,644.88 ZM 396.36 652.55 C398.92,653.67 413.08,653.93 472.81,653.96 C521.44,653.99 545.91,653.66 545.50,653.00 C545.16,652.45 541.56,652.00 537.50,652.00 C533.44,652.00 529.88,651.61 529.59,651.14 C529.29,650.66 526.78,650.73 523.98,651.28 C520.37,651.99 518.20,651.96 516.41,651.14 C515.03,650.51 512.88,650.00 511.62,650.00 C509.37,650.00 509.20,649.66 508.90,644.50 C508.72,641.57 510.57,639.00 512.87,638.99 C513.77,638.99 515.77,638.15 517.32,637.13 C519.69,635.57 520.86,635.43 524.69,636.24 C527.99,636.95 529.45,636.90 529.96,636.06 C530.94,634.47 535.82,635.49 539.20,637.99 C542.97,640.78 545.59,639.08 547.52,632.59 C548.90,627.98 548.87,627.60 547.09,626.35 C545.87,625.49 545.37,624.29 545.71,622.99 C546.55,619.79 547.81,619.67 551.13,622.46 C553.31,624.29 554.86,624.87 556.36,624.41 C557.54,624.05 558.52,623.69 558.55,623.63 C558.58,623.56 559.37,622.28 560.30,620.79 C561.24,619.29 562.00,617.47 562.00,616.74 C562.00,616.00 562.52,614.88 563.15,614.25 C564.70,612.70 568.36,614.62 567.61,616.58 C566.91,618.40 569.39,618.44 570.89,616.63 C571.52,615.87 571.77,614.57 571.45,613.73 C570.64,611.62 572.05,610.98 578.21,610.64 C581.12,610.48 584.56,609.78 585.86,609.08 C587.47,608.21 588.54,608.14 589.24,608.84 C589.95,609.55 591.09,609.35 592.88,608.24 C597.10,605.60 598.97,603.37 597.87,602.27 C597.23,601.63 598.47,600.85 601.44,600.02 C606.46,598.61 609.00,599.62 609.00,603.02 C609.00,605.40 611.60,606.26 613.40,604.46 C615.41,602.45 617.63,602.63 620.00,605.00 C621.10,606.10 623.15,607.00 624.57,607.00 C625.98,607.00 628.04,607.48 629.14,608.08 C631.11,609.13 636.91,620.56 637.47,624.50 C637.91,627.59 639.75,631.73 641.04,632.52 C641.87,633.04 641.85,632.57 640.96,630.87 C639.32,627.72 640.30,628.69 643.46,633.34 C644.87,635.43 645.73,637.63 645.36,638.22 C644.99,638.83 645.15,639.02 645.72,638.67 C646.69,638.07 656.00,647.09 656.00,648.63 C656.00,649.02 655.26,650.17 654.35,651.17 C653.43,652.18 653.18,653.00 653.79,653.00 C654.39,653.00 655.57,652.02 656.41,650.82 C657.78,648.87 658.31,648.76 661.47,649.73 C663.11,650.23 664.17,650.39 664.64,650.15 C665.51,652.69 664.92,654.83 663.02,657.25 L 661.03 659.78 L 667.98 660.17 C670.19,660.29 672.18,660.61 673.94,661.12 L 660.98 660.53 C652.47,660.15 583.17,659.98 507.00,660.17 C432.47,660.35 398.02,660.44 381.56,660.81 C383.76,660.63 385.27,660.37 385.46,660.07 C385.78,659.55 385.10,657.33 383.96,655.14 C378.71,645.07 376.06,621.09 377.94,600.58 C378.13,598.47 378.42,596.17 378.78,593.76 C377.45,603.90 376.96,613.98 377.82,619.00 C378.34,622.03 378.82,623.36 378.88,621.97 C378.98,619.85 379.45,619.47 381.75,619.64 C383.26,619.75 385.01,619.87 385.63,619.92 C386.26,619.96 387.09,622.59 387.47,625.75 C388.24,632.03 390.47,642.58 392.15,647.84 C392.87,650.11 394.23,651.63 396.36,652.55 ZM 520.45 328.26 C521.24,329.77 521.60,332.42 521.67,338.94 C521.62,338.25 521.55,337.69 521.47,337.28 C520.74,333.70 520.63,333.94 519.36,341.81 C515.34,366.60 498.67,386.39 473.66,396.06 C463.31,400.07 458.98,400.85 443.50,401.55 C436.35,401.87 428.25,402.61 425.50,403.20 C414.10,405.64 403.14,414.03 398.06,424.20 C395.24,429.85 395.00,431.12 395.00,440.71 C395.00,442.79 394.96,444.60 394.88,446.18 C394.88,445.89 394.85,445.52 394.80,445.08 C394.57,443.12 393.95,442.52 392.23,442.58 C389.31,442.69 388.53,439.77 389.36,431.81 C390.50,420.92 397.54,410.15 408.13,403.07 C416.84,397.25 424.63,395.27 443.50,394.08 C453.73,393.43 461.68,392.39 465.55,391.18 C490.46,383.44 509.49,364.24 516.89,339.39 C518.05,335.48 519.00,330.76 519.01,328.89 L 519.01 325.50 ZM 394.86 446.56 C394.66,450.24 394.23,452.59 393.53,453.95 C391.25,458.35 382.25,465.72 374.37,469.64 C368.13,472.74 366.35,473.18 360.07,473.12 C350.46,473.03 341.52,468.95 336.94,462.57 C333.99,458.45 333.62,458.25 330.66,459.10 C321.65,461.68 312.12,459.12 305.27,452.27 C303.67,450.67 302.58,449.29 301.28,446.48 L 302.06 448.02 L 304.22 446.01 L 306.38 443.99 L 308.94 446.39 C316.15,453.16 323.30,454.58 334.07,451.39 C341.46,449.19 353.00,443.14 355.78,440.00 C356.91,438.73 356.94,438.85 356.02,440.75 C355.42,441.99 351.73,446.17 347.82,450.04 L 340.72 457.07 L 343.11 459.67 C348.95,466.01 362.56,468.11 371.26,464.00 C377.93,460.85 385.32,454.78 387.50,450.66 C389.21,447.43 389.91,446.94 392.30,447.27 C394.11,447.53 394.75,447.48 394.86,446.56 ZM 404.00 286.88 C404.00,286.40 405.09,286.00 406.41,286.00 C408.15,286.00 408.74,285.51 408.54,284.25 C407.68,278.82 414.77,272.66 423.77,271.04 C430.23,269.87 432.56,270.26 431.32,272.32 C430.83,273.15 431.07,273.13 432.15,272.26 C432.78,271.75 433.64,270.27 434.30,268.64 C434.21,268.91 434.11,269.18 434.01,269.47 C432.89,272.73 431.31,276.41 430.50,277.65 C425.96,284.58 417.69,288.34 409.23,287.34 C404.86,286.82 403.97,287.12 397.94,291.17 L 391.40 295.55 L 394.10 288.92 C395.58,285.27 397.31,279.80 397.94,276.77 C400.17,266.05 407.04,258.87 417.77,256.04 C420.13,255.42 427.39,254.54 433.91,254.09 C440.43,253.63 446.38,252.95 447.13,252.57 C447.89,252.18 445.70,254.50 442.28,257.71 C441.87,258.09 441.48,258.46 441.11,258.81 L 439.00 259.39 C437.62,259.76 432.55,260.50 427.72,261.03 C422.78,261.57 417.27,262.84 415.13,263.94 C409.89,266.61 405.29,272.13 404.05,277.24 C403.48,279.58 402.19,283.11 401.18,285.08 L 399.36 288.65 L 401.68 288.21 C402.95,287.97 404.00,287.37 404.00,286.88 ZM 396.14 227.67 C408.08,213.76 422.37,200.68 437.39,190.00 C448.21,182.31 448.98,181.67 445.35,183.42 L 442.21 184.94 L 441.53 175.72 C440.61,163.17 438.30,147.21 435.95,137.17 C434.39,130.52 433.76,125.61 434.06,122.36 C434.03,122.80 434.01,123.28 434.02,123.79 C434.02,126.38 434.47,129.18 435.00,130.00 C435.84,131.30 435.97,131.28 435.98,129.86 C436.01,127.04 438.86,126.86 440.63,129.56 C441.53,130.93 443.82,138.00 445.71,145.27 C448.76,156.96 449.16,159.90 449.09,170.50 C449.03,180.51 448.74,182.67 447.37,183.50 C429.69,194.24 411.13,210.29 396.14,227.67 ZM 499.97 408.64 C500.68,407.28 501.37,405.92 502.04,404.53 C506.35,395.62 512.38,377.94 513.48,371.00 C514.36,365.45 516.45,362.00 518.93,362.00 C520.60,362.00 520.89,360.86 521.52,351.53 C521.55,351.11 521.58,350.69 521.60,350.26 C521.34,367.14 520.49,375.00 518.27,381.00 C515.14,389.43 513.27,395.62 513.65,396.24 C513.91,396.66 513.71,397.00 513.22,397.00 C512.73,397.00 511.81,398.12 511.18,399.50 C509.87,402.38 506.32,402.87 505.80,400.25 C505.59,399.17 503.65,401.85 500.70,407.30 C500.45,407.75 500.21,408.20 499.97,408.64 ZM 295.40 428.50 C296.17,431.67 297.13,435.12 298.06,438.11 C297.09,435.28 295.93,431.80 294.50,427.43 C288.79,410.04 286.74,401.56 287.01,395.16 C287.00,395.40 287.00,395.64 287.00,395.89 C287.00,399.46 287.14,399.63 289.87,399.23 C292.35,398.87 292.82,399.20 293.38,401.66 C293.74,403.22 295.68,409.79 297.69,416.26 C301.27,427.74 301.31,428.05 299.43,429.43 C297.71,430.69 297.36,430.61 296.21,428.67 C295.04,426.70 294.96,426.69 295.40,428.50 ZM 313.22 419.11 C311.32,417.89 310.86,414.04 312.35,411.91 C314.94,408.22 321.11,404.59 322.91,405.70 C324.50,406.69 325.71,406.54 326.37,405.77 C325.73,407.89 324.06,409.50 320.83,411.68 C317.64,413.84 316.27,415.65 315.02,419.41 L 313.38 424.33 L 311.78 420.91 C309.46,415.98 307.39,404.70 308.73,404.26 C309.31,404.06 309.58,403.10 309.32,402.12 C308.61,399.39 313.56,394.17 317.56,393.42 C322.65,392.47 325.59,394.78 326.43,400.40 C326.53,401.08 326.61,401.70 326.65,402.28 C326.33,401.31 325.73,400.28 324.83,399.31 C320.50,394.71 313.01,397.69 311.04,404.80 C309.57,410.08 309.75,413.94 311.73,419.57 C313.13,423.56 313.53,424.05 313.82,422.11 C314.01,420.80 313.75,419.45 313.22,419.11 ZM 498.11 648.75 C497.98,650.25 496.22,650.22 493.50,648.65 C492.02,647.80 491.52,646.50 491.57,643.62 C491.64,639.27 494.38,636.24 496.58,638.07 C497.38,638.73 498.04,638.75 498.42,638.12 C498.79,637.54 500.18,637.48 501.90,637.97 C504.00,638.57 505.19,638.39 506.29,637.28 C507.96,635.61 510.00,636.31 510.00,638.56 C510.00,639.44 509.00,640.00 507.43,640.00 C506.01,640.00 504.22,640.63 503.45,641.41 C502.66,642.19 501.10,642.58 499.93,642.27 C498.12,641.80 497.85,642.12 498.02,644.61 C498.12,646.20 498.16,648.06 498.11,648.75 ZM 592.00 776.89 C592.00,778.17 592.26,778.22 594.42,777.39 C595.29,777.06 596.00,776.16 596.00,775.39 C596.00,774.63 596.45,774.00 597.00,774.00 C597.55,774.00 598.00,773.55 598.00,773.00 C598.00,772.45 597.13,772.00 596.06,772.00 C594.99,772.00 593.84,772.45 593.50,773.00 C593.16,773.55 592.01,774.00 590.94,774.00 C589.87,774.00 589.00,774.66 589.00,775.47 C589.00,776.36 589.59,776.71 590.50,776.36 C591.33,776.05 592.00,776.28 592.00,776.89 ZM 603.09 249.61 C603.72,250.37 604.75,250.99 605.37,250.97 C605.99,250.95 605.71,250.34 604.75,249.61 C602.80,248.13 602.33,246.47 604.19,247.62 C604.84,248.02 603.89,246.50 602.08,244.25 C600.03,241.70 598.23,240.36 597.34,240.70 C596.17,241.15 596.32,241.71 598.08,243.58 C599.28,244.86 600.77,245.82 601.38,245.71 C602.00,245.59 602.37,246.11 602.21,246.86 C602.06,247.60 602.45,248.84 603.09,249.61 ZM 592.37 613.52 C593.38,616.16 597.50,615.00 597.49,612.08 C597.48,609.14 596.13,608.59 593.62,610.49 C592.49,611.34 592.00,612.55 592.37,613.52 ZM 580.75 622.31 C583.75,623.10 584.00,623.04 584.00,621.56 C584.00,619.70 582.33,618.66 581.50,620.00 C581.15,620.57 580.44,620.77 579.93,620.46 C579.42,620.14 579.00,620.33 579.00,620.87 C579.00,621.41 579.79,622.06 580.75,622.31 ZM 586.00 766.94 C586.00,768.01 585.55,769.16 584.99,769.50 C583.77,770.26 582.56,767.52 583.47,766.05 C584.53,764.34 586.00,764.85 586.00,766.94 ZM 590.19 600.79 C590.89,601.49 590.54,602.18 589.11,602.94 C587.41,603.85 587.00,603.79 587.00,602.59 C587.00,600.61 588.93,599.53 590.19,600.79 ZM 608.68 737.87 C609.00,739.10 609.75,739.65 610.64,739.31 C612.45,738.61 611.87,736.60 609.75,736.19 C608.60,735.97 608.30,736.44 608.68,737.87 ZM 615.65 265.59 C617.49,268.39 618.21,268.72 617.30,266.34 C616.82,265.10 617.03,264.88 618.08,265.48 C619.22,266.14 619.26,266.03 618.26,264.96 C617.58,264.22 616.36,263.52 615.55,263.40 C614.29,263.22 614.31,263.54 615.65,265.59 ZM 588.00 729.00 C588.00,729.55 588.67,730.00 589.50,730.00 C590.33,730.00 591.00,729.55 591.00,729.00 C591.00,728.45 590.33,728.00 589.50,728.00 C588.67,728.00 588.00,728.45 588.00,729.00 ZM 610.57 258.11 C610.57,260.37 610.56,260.37 609.10,258.62 C608.22,257.56 608.26,257.11 609.26,256.73 C610.06,256.42 610.57,256.97 610.57,258.11 ZM 674.00 979.94 C674.00,980.46 673.55,981.16 673.00,981.50 C672.45,981.84 672.00,981.42 672.00,980.56 C672.00,979.70 672.45,979.00 673.00,979.00 C673.55,979.00 674.00,979.42 674.00,979.94 ZM 379.50 696.00 C379.84,695.45 379.42,695.00 378.56,695.00 C377.70,695.00 377.00,695.45 377.00,696.00 C377.00,696.55 377.42,697.00 377.94,697.00 C378.46,697.00 379.16,696.55 379.50,696.00 ZM 462.13 126.28 C473.24,133.25 485.18,143.36 493.04,153.55 C485.76,144.11 473.42,133.56 462.13,126.28 ZM 383.46 571.11 C385.91,561.63 388.58,553.97 390.23,552.89 C389.02,553.68 386.22,561.31 383.46,571.11 ZM 688.46 279.06 C683.80,269.71 677.23,258.07 671.48,249.47 C668.07,244.38 664.50,239.47 660.78,234.75 C649.02,219.83 635.80,206.85 621.42,196.00 C601.99,181.37 580.44,170.63 557.51,164.32 C580.44,170.63 601.99,181.36 621.42,196.00 C635.81,206.85 649.03,219.84 660.78,234.75 C664.50,239.47 668.07,244.38 671.49,249.47 C677.82,258.93 683.49,268.82 688.46,279.06 ZM 434.59 267.90 C434.69,267.62 434.78,267.34 434.86,267.07 C435.51,264.89 437.27,262.12 438.77,260.91 L 439.99 259.93 C437.19,262.78 435.79,264.88 434.59,267.90 ZM 376.03 260.03 C379.13,251.30 381.07,247.38 385.23,241.53 C381.31,247.24 378.82,252.34 376.03,260.03 ZM 682.95 668.24 C682.37,667.28 681.50,666.26 680.23,665.00 L 678.24 663.01 C680.29,664.30 681.85,666.04 682.95,668.24 ZM 490.06 424.59 C482.98,434.59 473.77,445.03 458.05,461.50 C473.06,445.77 482.87,434.59 490.06,424.59 ZM 694.67 748.60 C701.03,753.31 705.77,757.38 709.20,761.33 C705.74,757.54 700.64,753.03 694.67,748.60 ZM 375.01 661.00 C370.29,661.20 368.09,661.45 366.80,661.78 C368.59,661.19 370.83,661.03 375.01,661.00 ZM 326.85 772.73 C328.57,766.97 331.89,762.14 338.02,756.51 C333.29,760.86 330.44,764.54 328.56,768.50 C327.90,769.90 327.32,771.35 326.85,772.73 ZM 373.52 718.33 C371.32,723.90 368.25,728.96 364.05,733.86 C367.11,730.28 369.54,726.63 371.48,722.77 C372.25,721.23 372.93,719.75 373.52,718.33 ZM 320.10 820.98 C321.54,819.07 323.07,817.94 325.07,817.27 C323.07,818.06 321.57,819.21 320.25,820.79 C320.20,820.85 320.15,820.92 320.10,820.98 ZM 683.84 739.87 C687.05,742.68 691.04,745.92 694.67,748.60 C690.47,745.49 686.90,742.63 683.84,739.87 ZM 720.36 819.22 C721.17,819.81 721.89,820.46 722.43,821.10 C723.15,821.95 723.67,822.58 724.04,823.44 C723.19,821.92 721.85,820.39 720.36,819.22 ZM 391.66 548.44 C392.37,546.30 393.53,544.00 394.14,544.00 C393.62,544.00 392.46,546.30 391.66,548.44 ZM 364.04 663.17 C362.70,664.09 361.51,665.16 360.52,666.33 C361.45,665.17 362.57,664.16 363.90,663.27 C363.95,663.24 364.00,663.20 364.04,663.17 ZM 287.32 392.11 C287.35,391.96 287.38,391.81 287.40,391.66 C287.49,391.19 287.70,390.62 288.03,389.95 C287.71,390.69 287.48,391.39 287.32,392.11 ZM 390.23 552.89 C390.54,552.69 390.80,552.36 390.96,552.03 C390.94,552.27 390.65,552.62 390.23,552.89 Z" fill="rgb(193,136,37)"/>
<path d="M 0.00 0.00 L 1024.00 0.00 L 1024.00 1024.00 L 0.00 1024.00 ZM 472.00 1009.45 C491.07,1011.36 544.67,1010.83 564.00,1008.55 C627.20,1001.10 681.77,984.66 736.65,956.53 C870.71,887.83 968.18,759.65 999.00,611.50 C1005.82,578.73 1008.57,555.95 1009.60,523.50 C1012.78,423.74 986.71,327.62 932.70,240.00 C910.19,203.48 878.15,165.23 843.50,133.54 C798.54,92.42 741.06,57.73 682.89,36.62 C625.30,15.72 570.87,5.87 513.54,5.97 C488.41,6.01 476.86,6.77 452.50,9.99 C370.12,20.87 294.48,50.66 225.50,99.40 C172.20,137.07 119.87,193.99 87.50,249.50 C68.78,281.60 58.30,303.73 44.65,340.00 C34.06,368.12 22.56,415.06 19.05,444.50 C18.39,450.00 17.42,457.65 16.88,461.50 C16.35,465.35 15.64,480.68 15.31,495.57 C14.18,547.40 18.65,585.19 31.98,636.52 C49.62,704.38 81.48,768.00 125.25,822.74 C170.93,879.87 231.85,928.99 295.50,960.01 C350.24,986.68 409.15,1003.18 472.00,1009.45 ZM 548.38 162.06 C551.57,162.77 554.75,163.55 557.90,164.43 C580.68,170.75 602.10,181.45 621.42,196.00 C631.89,203.89 641.74,212.92 650.85,222.99 L 650.83 222.97 C650.31,222.49 649.92,222.19 649.67,222.10 C649.03,221.89 646.74,220.33 644.58,218.64 C642.43,216.95 640.00,215.47 639.18,215.35 C638.37,215.23 637.33,214.54 636.89,213.82 C636.44,213.09 635.19,212.45 634.12,212.39 C632.45,212.30 632.33,212.56 633.32,214.14 C633.96,215.16 634.77,216.00 635.13,216.00 C635.49,216.00 636.05,216.69 636.37,217.53 C636.69,218.37 633.25,215.77 628.73,211.75 C598.54,184.97 558.50,168.00 521.97,166.49 C515.27,166.22 509.28,165.68 508.65,165.30 C508.02,164.93 508.17,165.44 509.00,166.45 C509.60,167.19 510.96,169.51 512.39,172.23 C510.89,169.43 509.41,167.01 508.70,166.22 C506.67,163.98 499.26,160.41 498.40,161.26 C498.27,161.40 498.20,161.70 498.19,162.14 C497.78,160.61 497.13,159.11 496.37,157.87 L 497.32 159.10 L 506.41 158.45 C517.22,157.68 535.71,159.27 548.38,162.06 ZM 287.32 392.11 C287.48,391.39 287.71,390.69 288.03,389.95 C289.34,387.27 292.60,382.92 298.20,376.38 C317.60,353.68 337.51,327.60 354.22,303.00 C365.26,286.76 368.73,280.66 372.97,268.84 C372.65,270.46 372.51,272.21 372.74,273.42 C373.41,276.93 374.74,277.55 377.06,275.44 C378.13,274.48 379.00,273.96 379.00,274.28 C379.00,276.90 368.33,296.10 361.09,306.50 C359.18,309.25 356.25,313.52 354.58,316.00 C349.95,322.85 321.85,359.95 319.00,362.98 C318.17,363.85 313.92,369.05 309.55,374.53 C305.17,380.01 301.00,384.95 300.28,385.50 C299.56,386.05 297.91,388.26 296.61,390.42 C294.29,394.26 294.23,394.29 293.49,391.92 C292.41,388.48 291.05,387.95 288.88,390.12 C287.71,391.29 287.01,393.37 287.00,395.75 C287.00,395.55 287.00,395.35 287.01,395.16 C287.05,394.10 287.16,393.09 287.32,392.11 ZM 471.50 447.12 C471.46,447.17 471.42,447.21 471.38,447.26 C469.54,449.42 469.54,449.44 471.39,447.99 C473.17,446.61 473.24,446.68 472.53,449.01 C472.12,450.38 471.38,451.93 470.89,452.45 C469.67,453.75 469.77,456.00 471.04,456.00 C472.15,456.00 478.66,449.40 486.00,440.83 C488.48,437.94 492.41,433.61 494.75,431.21 C497.09,428.81 499.00,426.29 499.00,425.63 C499.00,424.57 508.10,407.27 510.90,403.00 C511.71,401.77 511.89,401.87 511.94,403.62 C512.02,406.58 503.09,422.57 494.70,434.50 C487.34,444.95 479.32,454.30 462.41,472.12 C443.94,491.59 433.22,503.88 423.35,516.95 C417.97,524.07 413.41,529.74 413.22,529.55 C412.26,528.59 415.29,521.08 417.46,519.04 C418.82,517.76 419.72,516.36 419.45,515.92 C419.19,515.49 419.41,514.86 419.96,514.53 C421.85,513.36 428.00,503.29 427.98,501.40 C427.96,499.98 426.58,500.93 422.52,505.12 C419.53,508.21 416.76,510.46 416.38,510.12 C416.00,509.78 415.95,510.25 416.28,511.17 C416.67,512.28 416.04,513.40 414.44,514.45 C413.09,515.33 410.82,517.83 409.38,520.01 C407.93,522.19 406.39,523.74 405.95,523.47 C405.71,523.32 405.41,523.34 405.11,523.48 C413.21,511.04 427.52,493.98 449.34,470.70 L 453.61 466.68 C458.25,462.29 458.86,462.00 460.29,463.43 C462.23,465.37 463.62,465.43 464.32,463.60 C465.11,461.56 463.92,460.82 462.15,462.26 C460.89,463.29 460.73,463.23 461.22,461.92 C462.33,458.94 459.59,460.18 455.29,464.40 C456.20,463.44 457.12,462.48 458.05,461.50 C463.18,456.13 467.61,451.40 471.50,447.12 ZM 396.14 227.67 C409.73,211.91 426.25,197.25 442.39,186.65 L 444.49 187.75 C445.90,188.49 447.49,188.82 448.02,188.49 C448.56,188.15 449.00,188.33 449.00,188.87 C449.00,189.92 446.43,192.17 430.50,205.05 C418.81,214.50 403.80,230.38 393.24,244.48 C389.12,249.98 385.60,254.93 385.41,255.48 C383.90,259.89 383.37,261.49 382.65,261.58 C382.25,261.64 381.78,261.21 381.05,260.54 C380.99,260.49 380.94,260.45 380.88,260.40 C378.87,258.57 378.79,258.57 377.41,260.45 C376.63,261.51 376.00,263.00 376.00,263.75 C376.00,264.50 375.62,264.88 375.16,264.60 C374.89,264.43 374.59,264.62 374.30,265.04 C374.36,264.86 374.42,264.68 374.49,264.50 C375.04,262.88 375.55,261.40 376.03,260.03 C378.82,252.34 381.31,247.24 385.23,241.53 C385.91,240.58 386.64,239.58 387.45,238.50 C390.17,234.85 393.08,231.23 396.14,227.67 ZM 462.13 126.28 C473.26,133.46 485.40,143.80 492.72,153.14 C492.54,153.22 492.21,153.45 491.73,153.84 C490.82,154.58 489.79,156.08 489.45,157.17 C488.90,158.90 487.67,158.03 480.16,150.67 C469.55,140.27 466.63,137.85 461.50,135.24 C459.30,134.12 455.09,131.59 452.15,129.60 C449.21,127.62 445.94,126.00 444.90,126.00 C442.03,126.00 442.42,131.16 445.57,134.90 C451.77,142.26 455.39,174.35 451.05,183.50 C449.57,186.64 449.14,187.02 449.08,185.27 C449.00,183.06 448.96,183.05 445.46,184.72 L 445.19 184.85 C445.92,184.39 446.65,183.94 447.37,183.50 C448.74,182.67 449.03,180.51 449.09,170.50 C449.16,159.90 448.76,156.96 445.71,145.27 C443.82,138.00 441.53,130.93 440.63,129.56 C439.87,128.40 438.91,127.77 438.06,127.66 C438.66,127.58 439.32,127.78 439.97,128.27 C440.81,128.90 440.18,127.98 438.56,126.21 C436.95,124.45 435.26,123.00 434.81,123.00 C434.38,123.00 434.12,123.80 434.04,124.91 C434.03,124.53 434.02,124.16 434.02,123.79 C434.01,123.28 434.03,122.80 434.06,122.36 C434.27,120.02 434.97,118.55 436.15,117.92 C440.69,115.49 450.99,119.31 462.13,126.28 ZM 375.01 661.00 C375.35,661.00 375.71,661.00 376.09,661.00 C378.10,661.00 380.00,660.93 381.56,660.81 C388.09,660.66 397.45,660.56 411.03,660.48 C395.24,660.61 385.67,660.79 386.00,661.00 C387.08,661.70 385.96,662.01 382.00,662.12 C378.98,662.20 377.59,662.48 378.91,662.73 C380.78,663.08 381.00,663.38 379.91,664.08 C379.00,664.65 380.89,664.97 385.25,664.98 C390.12,665.00 391.93,664.65 391.75,663.75 C391.61,663.06 391.05,662.17 390.50,661.77 C389.95,661.36 420.33,661.13 458.00,661.25 C514.72,661.42 520.40,661.55 491.00,662.00 C471.48,662.30 458.20,662.72 461.50,662.94 C467.16,663.31 467.27,663.37 463.50,663.92 C461.30,664.24 484.25,664.73 514.50,665.01 C533.72,665.19 544.19,665.32 544.19,665.41 C544.19,665.56 521.42,665.64 470.32,665.76 C373.50,665.99 371.12,665.95 370.53,664.09 C369.76,661.67 368.19,661.08 365.59,662.28 C365.98,662.09 366.38,661.92 366.80,661.78 C368.09,661.45 370.29,661.20 375.01,661.00 ZM 399.50 294.61 C393.56,296.87 391.51,297.59 391.85,295.25 L 393.08 294.43 C392.45,294.98 392.00,295.47 392.00,295.62 C392.00,296.45 392.82,295.92 394.13,294.25 C394.53,293.74 394.79,293.39 394.92,293.19 L 397.94 291.17 C403.97,287.12 404.86,286.82 409.23,287.34 C417.69,288.34 425.96,284.58 430.50,277.65 C431.31,276.41 432.89,272.73 434.01,269.47 C434.11,269.18 434.21,268.91 434.30,268.64 C434.40,268.40 434.50,268.15 434.59,267.90 C435.79,264.88 437.19,262.78 439.99,259.93 L 441.50 258.71 L 441.11 258.81 C441.48,258.46 441.87,258.09 442.28,257.71 C445.70,254.50 447.89,252.18 447.13,252.57 C446.38,252.95 440.43,253.63 433.91,254.09 C440.43,253.63 446.38,252.90 447.13,252.46 C447.89,252.02 447.60,252.71 446.50,254.00 C445.29,255.42 445.09,256.01 446.00,255.50 C447.25,254.80 447.24,254.98 445.92,256.58 C443.82,259.13 441.45,264.48 439.99,269.98 C437.08,280.92 430.12,289.45 422.14,291.84 C420.01,292.48 414.95,293.02 410.88,293.04 C406.80,293.07 401.71,293.77 399.50,294.61 ZM 506.84 185.74 C510.47,190.77 515.16,192.96 526.93,196.99 C551.17,205.28 570.96,217.65 590.58,237.12 C589.82,236.42 588.97,235.62 588.02,234.70 C581.96,228.87 582.35,229.41 590.07,237.50 C595.32,243.00 601.36,249.75 603.50,252.50 C607.95,258.21 609.65,260.12 608.59,258.25 C608.23,257.61 608.30,257.08 608.73,257.01 C608.29,257.35 608.42,257.80 609.10,258.62 C609.31,258.88 609.50,259.10 609.65,259.28 C609.65,259.37 609.65,259.46 609.64,259.55 C609.60,260.37 609.64,261.02 609.39,261.16 C608.85,261.46 606.87,259.22 599.30,250.62 C598.58,249.81 597.82,248.94 597.00,248.01 C588.65,238.53 578.79,229.65 568.50,222.32 C554.41,212.28 545.18,207.47 524.54,199.41 C515.49,195.88 508.54,191.56 509.47,190.05 C509.75,189.60 509.20,188.61 508.24,187.86 C506.63,186.60 506.61,186.65 507.98,188.50 C509.45,190.48 509.44,190.48 507.23,188.60 C504.93,186.63 504.10,184.33 506.15,185.60 C506.59,185.86 506.82,185.91 506.84,185.74 ZM 521.60 350.26 C521.84,345.99 521.86,341.56 521.67,338.94 C521.66,337.96 521.64,337.07 521.62,336.25 C521.68,338.02 521.76,340.16 521.83,342.00 C521.96,345.50 522.34,347.01 522.89,346.15 C524.38,343.80 525.19,353.35 523.93,358.37 C523.29,360.90 522.47,362.79 522.10,362.56 C521.73,362.34 521.45,366.32 521.47,371.42 C521.49,377.97 521.09,381.19 520.09,382.39 C518.97,383.74 518.49,383.83 517.80,382.80 C517.75,382.73 517.71,382.67 517.67,382.62 C517.86,382.09 518.06,381.55 518.27,381.00 C520.49,375.00 521.34,367.14 521.60,350.26 ZM 314.93 422.50 C314.86,420.59 314.83,420.58 314.11,422.40 C314.00,422.69 313.89,422.93 313.79,423.10 L 315.02 419.41 C316.27,415.65 317.64,413.84 320.83,411.68 C324.06,409.50 325.73,407.89 326.37,405.77 C327.00,405.03 327.13,403.72 326.65,402.28 C326.61,401.70 326.53,401.08 326.43,400.40 C326.32,399.64 326.17,398.94 325.97,398.30 C324.58,394.52 322.33,392.95 318.81,393.25 C322.49,392.94 324.87,394.61 325.97,398.30 C326.23,398.99 326.46,399.77 326.66,400.62 C327.30,403.30 328.11,406.21 328.46,407.09 C329.22,409.01 326.19,413.00 323.68,413.37 C322.68,413.52 321.33,414.54 320.68,415.65 C316.64,422.53 315.01,424.47 314.93,422.50 ZM 418.00 664.05 C418.00,665.31 420.71,665.27 421.50,664.00 C421.84,663.45 424.00,663.01 426.31,663.02 C429.38,663.03 430.10,663.29 429.00,664.00 C427.96,664.67 429.90,664.97 435.31,664.98 C439.84,664.99 442.88,664.61 442.55,664.08 C442.23,663.57 442.77,662.94 443.74,662.69 C444.71,662.44 436.50,662.27 425.50,662.31 C414.50,662.35 408.31,662.55 411.75,662.74 C415.19,662.94 418.00,663.52 418.00,664.05 ZM 617.52 270.48 C619.35,273.52 621.47,277.21 623.57,281.00 C623.31,281.06 623.36,281.78 623.70,282.66 C625.12,286.37 621.84,282.63 619.34,277.69 C617.28,273.63 617.11,272.85 618.54,274.01 C619.61,274.89 618.88,272.99 617.52,270.48 ZM 498.86 166.73 C499.67,170.27 501.10,174.78 502.59,177.99 C503.82,180.65 504.91,182.80 506.06,184.60 C505.70,184.37 505.29,184.32 504.97,184.52 C503.77,185.26 499.72,177.18 500.40,175.39 C500.70,174.62 500.49,172.78 499.93,171.31 C499.54,170.30 499.13,168.51 498.86,166.73 ZM 479.56 437.99 C479.36,438.33 479.31,438.70 479.49,438.98 C480.16,440.06 475.08,446.17 474.04,445.53 C473.65,445.29 472.62,445.91 471.66,446.95 C474.58,443.74 477.19,440.78 479.56,437.99 ZM 433.23 492.82 C433.01,493.47 433.49,494.00 434.29,494.00 C436.09,494.00 438.55,491.21 437.59,490.26 C436.76,489.43 433.77,491.18 433.23,492.82 ZM 665.87 660.75 C653.84,660.34 602.55,660.13 547.10,660.10 C606.12,660.05 654.00,660.22 660.98,660.53 ZM 408.00 540.81 C408.00,541.34 407.12,542.84 406.05,544.14 L 404.09 546.50 L 404.85 543.57 C405.56,540.81 408.00,538.68 408.00,540.81 ZM 650.26 363.74 C650.39,364.70 650.50,365.67 650.62,366.63 C652.73,384.87 652.04,418.60 649.15,438.00 C648.75,440.69 648.26,443.69 647.69,446.95 C650.27,430.94 651.32,418.01 651.69,402.50 C652.04,388.28 651.61,375.70 650.26,363.74 ZM 404.25 524.83 C404.37,524.84 404.61,524.74 404.98,524.52 C405.84,523.98 406.09,524.18 405.75,525.11 C405.48,525.87 404.80,526.41 404.24,526.29 C403.69,526.17 403.29,526.85 403.37,527.79 C403.44,528.73 402.90,529.38 402.18,529.23 C401.96,529.18 401.78,529.17 401.64,529.21 C402.42,527.82 403.28,526.36 404.25,524.83 ZM 484.13 432.46 C483.54,433.25 483.24,433.91 483.42,434.09 C483.66,434.33 482.95,435.65 481.84,437.01 C480.73,438.38 480.16,438.87 480.57,438.10 C481.06,437.16 480.92,436.93 480.14,437.41 C480.05,437.47 479.97,437.53 479.89,437.60 C481.39,435.82 482.80,434.12 484.13,432.46 ZM 401.38 529.69 C401.41,529.81 401.48,529.96 401.58,530.13 C401.98,530.77 401.65,531.80 400.86,532.40 C400.06,533.01 398.81,534.96 398.08,536.75 C397.35,538.54 396.34,540.00 395.82,540.00 C396.34,539.96 397.70,537.67 398.86,534.88 C399.53,533.27 400.37,531.54 401.38,529.69 ZM 629.69 292.59 C630.37,293.96 631.00,295.26 631.56,296.45 C634.48,302.71 637.14,309.40 639.51,316.41 C637.34,310.19 633.21,300.33 629.69,292.59 ZM 499.12 172.32 C499.71,173.33 499.97,174.36 499.72,174.62 C499.46,174.88 498.97,174.36 498.62,173.46 C497.66,170.95 497.94,170.30 499.12,172.32 ZM 602.32 248.12 C602.19,247.66 602.14,247.20 602.21,246.86 C602.37,246.11 602.00,245.59 601.38,245.71 C600.81,245.81 599.48,244.99 598.32,243.84 C599.28,244.58 600.00,244.90 600.00,244.53 C600.00,244.10 600.67,244.31 601.49,244.99 C602.31,245.67 602.72,246.65 602.40,247.16 C602.26,247.39 602.24,247.73 602.32,248.12 ZM 494.94 156.01 C494.29,155.38 493.64,155.00 493.05,155.00 C492.38,155.00 492.20,154.46 492.63,153.75 C492.74,153.57 492.82,153.42 492.86,153.32 C492.92,153.40 492.98,153.47 493.04,153.55 ZM 606.24 253.81 C607.02,254.52 607.70,255.06 608.23,255.40 C608.15,255.42 608.07,255.45 608.00,255.50 C607.06,256.08 606.12,254.86 606.24,253.81 ZM 609.30 254.58 C610.28,255.91 610.87,257.00 610.61,257.00 C610.34,257.00 609.84,256.54 609.49,255.98 C609.45,255.91 609.40,255.85 609.34,255.79 C609.59,255.65 609.44,255.08 608.75,253.97 C608.72,253.92 608.69,253.87 608.66,253.83 C608.87,254.05 609.09,254.30 609.30,254.58 ZM 673.94 661.12 C674.52,661.29 675.08,661.47 675.61,661.68 C674.02,661.29 671.74,661.12 667.83,660.84 C667.79,660.84 667.74,660.84 667.70,660.84 ZM 517.08 384.26 C516.98,385.00 516.78,385.84 516.51,386.50 C516.23,387.20 515.73,388.43 515.22,389.72 C515.73,388.12 516.36,386.28 517.08,384.26 ZM 490.62 423.80 C488.35,427.16 486.28,429.98 484.84,431.57 C484.78,431.65 484.71,431.72 484.65,431.79 C486.61,429.32 488.39,426.95 490.06,424.59 L 490.06 424.59 C490.25,424.33 490.44,424.07 490.62,423.80 ZM 606.50 252.00 L 606.51 251.99 C607.08,251.07 608.12,251.52 609.11,252.60 C608.22,251.74 607.24,251.40 606.50,252.00 ZM 436.01 129.49 C435.99,129.60 435.99,129.73 435.98,129.86 C435.97,130.95 435.90,131.22 435.48,130.70 C435.60,130.59 435.71,130.34 435.83,129.95 C435.89,129.79 435.94,129.63 436.01,129.49 ZM 662.22 236.60 C665.42,240.75 668.51,245.04 671.48,249.47 C673.12,251.91 674.82,254.60 676.52,257.41 C674.82,254.61 673.13,251.93 671.50,249.50 C668.74,245.39 665.43,240.82 662.22,236.60 ZM 682.95 668.24 C683.25,668.83 683.51,669.47 683.74,670.13 C683.88,670.71 683.93,671.32 683.92,671.99 C683.92,670.19 683.34,668.66 681.90,666.79 C682.32,667.30 682.67,667.77 682.95,668.24 ZM 596.67 241.13 C596.78,240.96 597.01,240.83 597.34,240.70 C597.56,240.62 597.83,240.63 598.14,240.74 C597.78,240.70 597.45,240.78 597.11,240.98 C596.97,241.06 596.83,241.11 596.67,241.13 ZM 600.49 247.55 C601.31,248.47 602.13,249.39 602.95,250.33 C602.34,249.71 601.47,248.72 600.49,247.55 ZM 521.56 334.80 C521.51,333.72 521.45,332.81 521.36,332.03 C521.45,332.55 521.50,333.06 521.51,333.50 C521.53,333.85 521.54,334.29 521.56,334.80 ZM 605.26 250.97 C605.45,250.95 605.59,250.92 605.66,250.86 C605.61,250.93 605.52,250.96 605.37,250.97 C605.34,250.97 605.30,250.97 605.26,250.97 ZM 611.59 260.87 C611.42,260.15 611.35,259.40 611.43,258.71 C611.36,259.41 611.42,260.15 611.59,260.87 ZM 519.87 327.15 L 519.51 326.46 C519.61,326.60 519.72,326.84 519.87,327.15 ZM 611.46 258.13 C611.46,258.31 611.45,258.49 611.43,258.66 C611.45,258.49 611.46,258.31 611.46,258.13 ZM 357.33 674.11 L 357.33 674.11 C357.35,674.17 357.37,674.23 357.40,674.28 C357.37,674.23 357.35,674.17 357.33,674.11 ZM 557.90 164.43 C557.95,164.44 558.01,164.46 558.07,164.48 C557.88,164.42 557.69,164.37 557.51,164.32 C557.64,164.36 557.77,164.39 557.90,164.43 Z" fill="rgb(244,244,243)"/>
<path d="M 472.00 1009.45 C409.15,1003.18 350.24,986.68 295.50,960.01 C231.85,928.99 170.93,879.87 125.25,822.74 C81.48,768.00 49.62,704.38 31.98,636.52 C18.65,585.19 14.18,547.40 15.31,495.57 C15.64,480.68 16.35,465.35 16.88,461.50 C17.42,457.65 18.39,450.00 19.05,444.50 C22.56,415.06 34.06,368.12 44.65,340.00 C58.30,303.73 68.78,281.60 87.50,249.50 C119.87,193.99 172.20,137.07 225.50,99.40 C294.48,50.66 370.12,20.87 452.50,9.99 C476.86,6.77 488.41,6.01 513.54,5.97 C570.87,5.87 625.30,15.72 682.89,36.62 C741.06,57.73 798.54,92.42 843.50,133.54 C878.15,165.23 910.19,203.48 932.70,240.00 C986.71,327.62 1012.78,423.74 1009.60,523.50 C1008.57,555.95 1005.82,578.73 999.00,611.50 C968.18,759.65 870.71,887.83 736.65,956.53 C681.77,984.66 627.20,1001.10 564.00,1008.55 C544.67,1010.83 491.07,1011.36 472.00,1009.45 ZM 546.50 998.98 C571.78,997.02 576.33,996.54 583.43,995.04 C586.14,994.46 588.84,994.07 589.43,994.15 C590.02,994.24 591.17,994.05 592.00,993.73 C593.58,993.11 605.72,990.89 610.00,990.43 C611.38,990.28 612.50,990.11 612.50,990.05 C612.50,989.99 620.83,987.74 631.00,985.07 C655.91,978.51 664.12,976.20 666.50,975.05 C667.60,974.52 674.12,971.98 681.00,969.40 C698.79,962.75 716.19,955.05 733.50,946.18 C741.75,941.96 748.72,938.24 749.00,937.92 C749.28,937.60 751.96,936.03 754.97,934.42 C757.97,932.81 761.04,930.94 761.79,930.25 C762.53,929.56 763.79,929.00 764.57,929.00 C765.36,929.00 766.00,928.56 766.00,928.02 C766.00,927.48 767.12,926.76 768.50,926.41 C769.88,926.07 771.00,925.38 771.00,924.89 C771.00,924.40 771.67,924.00 772.50,924.00 C773.33,924.00 774.00,923.55 774.00,923.00 C774.00,922.45 774.67,922.00 775.50,922.00 C776.33,922.00 777.00,921.55 777.00,921.00 C777.00,920.45 777.67,920.00 778.50,920.00 C779.33,920.00 780.00,919.55 780.00,919.00 C780.00,918.45 780.67,918.00 781.50,918.00 C782.33,918.00 783.00,917.55 783.00,917.00 C783.00,916.45 783.43,916.00 783.95,916.00 C784.47,916.00 786.11,914.88 787.59,913.50 C789.08,912.12 790.90,911.00 791.65,911.00 C792.39,911.00 793.00,910.64 793.00,910.19 C793.00,909.43 801.52,903.00 802.53,903.00 C802.95,903.00 804.05,902.07 809.08,897.45 C809.96,896.65 811.03,896.00 811.48,896.00 C811.92,896.00 813.24,895.09 814.39,893.97 C817.23,891.23 823.02,886.11 827.13,882.71 C838.43,873.36 860.01,852.31 870.00,840.90 C875.07,835.12 876.94,832.99 884.00,825.01 C885.38,823.45 887.82,820.34 889.44,818.09 C891.06,815.84 892.75,814.00 893.19,814.00 C893.64,814.00 894.00,813.35 894.00,812.55 C894.00,811.75 894.59,810.74 895.30,810.30 C896.02,809.86 897.63,807.81 898.89,805.75 C900.14,803.69 901.58,802.00 902.08,802.00 C902.59,802.00 903.00,801.31 903.00,800.47 C903.00,799.63 903.67,798.68 904.50,798.36 C905.33,798.05 906.00,797.43 906.00,797.00 C906.00,796.02 919.04,776.73 920.28,775.89 C920.77,775.55 921.02,775.00 920.84,774.67 C920.65,774.34 921.29,773.15 922.25,772.02 C923.21,770.90 924.00,769.73 924.00,769.43 C924.00,768.39 935.36,749.49 936.43,748.77 C937.07,748.32 937.10,748.02 936.50,748.00 C935.83,747.98 935.83,747.72 936.50,747.23 C937.05,746.83 938.82,743.69 940.43,740.25 C942.05,736.81 943.76,734.00 944.24,734.00 C944.72,734.00 944.84,733.55 944.50,733.00 C944.16,732.45 944.39,732.00 945.00,732.00 C945.61,732.00 945.84,731.55 945.50,731.00 C945.16,730.45 945.43,730.00 946.11,730.00 C946.78,730.00 947.05,729.72 946.71,729.38 C946.37,729.04 947.74,725.55 949.75,721.63 C951.75,717.71 953.31,714.16 953.20,713.75 C953.09,713.34 953.45,713.00 954.00,713.00 C954.55,713.00 954.90,712.66 954.77,712.25 C954.56,711.57 964.42,686.84 965.84,684.50 C966.17,683.95 966.52,683.05 966.61,682.50 C966.78,681.43 973.62,661.51 974.67,659.00 C975.02,658.17 975.45,656.75 975.63,655.84 C975.81,654.93 977.30,649.53 978.94,643.84 C1021.52,496.18 991.28,334.96 897.66,210.50 C857.79,157.49 809.43,114.80 752.03,81.93 C615.56,3.79 452.32,-2.91 309.53,63.76 C241.57,95.49 183.99,140.65 136.43,199.51 C76.57,273.60 39.83,363.16 28.97,461.50 C26.89,480.29 26.59,526.52 28.41,547.50 C36.29,638.30 67.74,723.83 119.80,796.00 C174.35,871.62 251.18,931.50 337.00,965.29 C360.00,974.34 389.89,983.70 406.75,987.13 C410.19,987.83 413.00,988.79 413.00,989.26 C413.00,989.73 413.41,989.87 413.90,989.56 C414.77,989.02 428.93,991.49 432.00,992.72 C432.83,993.05 433.76,993.27 434.08,993.22 C434.40,993.16 440.49,993.97 447.62,995.02 C454.75,996.07 468.89,997.65 479.03,998.53 C489.17,999.41 497.55,1000.22 497.65,1000.32 C498.27,1000.93 533.99,999.95 546.50,998.98 ZM 674.00 979.94 C674.00,979.42 673.55,979.00 673.00,979.00 C672.45,979.00 672.00,979.70 672.00,980.56 C672.00,981.42 672.45,981.84 673.00,981.50 C673.55,981.16 674.00,980.46 674.00,979.94 ZM 325.78 857.25 C324.93,856.29 324.03,853.13 323.77,850.24 C323.51,847.35 322.55,844.16 321.65,843.16 C320.71,842.13 319.93,839.43 319.84,836.92 L 319.69 832.50 L 319.00 837.50 C318.42,841.72 318.29,841.02 318.16,833.00 C318.03,824.50 318.25,823.21 320.25,820.79 C323.84,816.46 328.89,815.35 341.50,816.12 C357.16,817.08 604.87,817.84 664.00,817.11 C691.22,816.77 714.93,816.85 716.69,817.28 C720.48,818.21 725.00,823.21 725.00,826.48 C725.00,828.32 724.58,828.70 722.99,828.29 C721.89,828.00 720.35,828.29 719.58,828.93 C718.45,829.87 718.03,829.68 717.51,828.03 C715.95,823.11 716.93,823.16 650.00,824.05 C615.62,824.50 546.01,824.90 495.31,824.94 C434.99,824.98 402.90,825.35 402.50,826.00 C401.67,827.34 394.29,827.28 393.45,825.92 C393.01,825.21 390.28,825.08 385.25,825.56 C379.75,826.07 377.91,825.96 378.42,825.13 C378.90,824.36 377.79,824.00 374.94,824.00 C371.25,824.00 370.83,824.23 371.29,826.01 C371.94,828.49 368.44,830.84 366.69,829.09 C365.12,827.52 363.69,827.75 364.35,829.46 C365.11,831.46 360.66,834.79 356.15,835.60 C354.14,835.95 351.51,837.15 350.30,838.25 C348.82,839.60 347.51,840.00 346.30,839.49 C344.00,838.51 336.06,838.00 333.64,838.68 C332.07,839.12 331.88,839.84 332.42,843.21 C333.20,848.07 332.05,849.69 328.04,849.41 C325.23,849.22 325.00,849.45 325.00,852.48 C325.00,855.93 326.19,857.46 329.50,858.28 C331.42,858.75 331.42,858.77 329.40,858.88 C328.25,858.95 326.62,858.21 325.78,857.25 ZM 333.05 790.62 C332.54,789.30 331.83,786.59 331.45,784.61 C330.81,781.18 329.83,780.47 326.31,780.91 C324.53,781.13 325.75,774.44 328.56,768.50 C331.56,762.18 337.05,756.53 348.72,747.79 C364.35,736.08 372.19,725.48 375.84,711.12 C377.22,705.66 377.91,704.33 379.00,705.00 C379.79,705.49 381.14,705.46 382.13,704.93 C384.56,703.63 385.00,703.75 385.00,705.75 C385.00,707.38 387.40,707.51 420.25,707.64 C439.64,707.71 460.45,708.27 466.50,708.88 C472.55,709.48 481.77,709.92 487.00,709.85 C507.73,709.57 508.10,709.59 532.50,711.42 C547.53,712.56 554.13,713.99 561.75,717.78 C565.74,719.76 569.00,721.74 569.00,722.19 C569.00,722.63 569.51,723.00 570.14,723.00 C570.76,723.00 572.33,724.14 573.62,725.54 C575.89,727.98 576.24,730.23 574.73,732.64 C573.95,733.90 575.68,735.63 578.00,735.90 C578.83,736.00 581.35,736.21 583.61,736.37 C586.82,736.59 588.40,737.40 590.83,740.08 C592.54,741.96 593.95,743.84 593.97,744.25 C593.99,744.66 594.84,745.00 595.88,745.00 C596.91,745.00 598.32,745.67 599.00,746.50 C599.68,747.33 600.91,748.00 601.73,748.00 C602.61,748.00 602.99,748.59 602.66,749.44 C602.36,750.23 602.91,751.91 603.89,753.19 C606.32,756.33 605.00,762.08 601.99,761.50 C600.78,761.27 600.00,761.66 600.00,762.49 C600.00,763.32 598.70,764.00 596.77,764.19 C594.60,764.40 593.17,765.25 592.41,766.79 C590.89,769.86 587.93,771.91 586.04,771.20 C584.70,770.70 584.68,770.85 585.91,772.36 C587.14,773.87 587.12,774.31 585.77,775.66 C583.42,778.01 575.00,778.14 572.46,775.87 C570.21,773.85 568.94,774.09 552.36,779.61 C547.70,781.16 543.01,781.97 538.86,781.93 C524.89,781.81 508.17,782.79 504.74,783.92 C499.94,785.50 494.77,785.93 474.84,786.39 C465.67,786.60 457.75,787.04 457.23,787.36 C454.63,788.97 356.93,789.96 348.74,788.47 C343.76,787.55 338.34,788.66 335.93,791.07 C333.98,793.02 333.96,793.02 333.05,790.62 ZM 586.00 766.94 C586.00,764.85 584.53,764.34 583.47,766.05 C582.56,767.52 583.77,770.26 584.99,769.50 C585.55,769.16 586.00,768.01 586.00,766.94 ZM 592.00 776.89 C592.00,776.28 591.33,776.05 590.50,776.36 C589.59,776.71 589.00,776.36 589.00,775.47 C589.00,774.66 589.87,774.00 590.94,774.00 C592.01,774.00 593.16,773.55 593.50,773.00 C593.84,772.45 594.99,772.00 596.06,772.00 C597.13,772.00 598.00,772.45 598.00,773.00 C598.00,773.55 597.55,774.00 597.00,774.00 C596.45,774.00 596.00,774.63 596.00,775.39 C596.00,776.16 595.29,777.06 594.42,777.39 C592.26,778.22 592.00,778.17 592.00,776.89 ZM 706.96 770.64 C704.26,765.22 698.31,759.46 685.15,749.50 C670.70,738.57 660.82,724.85 659.58,714.00 C659.30,711.53 659.32,710.32 659.62,711.32 C660.03,712.66 660.97,713.05 663.23,712.82 C665.95,712.54 666.44,712.90 667.52,716.03 C671.86,728.57 678.73,736.81 694.67,748.60 C705.88,756.90 714.00,765.50 714.00,769.09 C714.00,770.14 713.31,771.00 712.47,771.00 C711.63,771.00 710.57,771.98 710.13,773.18 C709.40,775.16 709.11,774.93 706.96,770.64 ZM 608.68 737.87 C608.30,736.44 608.60,735.97 609.75,736.19 C611.87,736.60 612.45,738.61 610.64,739.31 C609.75,739.65 609.00,739.10 608.68,737.87 ZM 588.00 729.00 C588.00,728.45 588.67,728.00 589.50,728.00 C590.33,728.00 591.00,728.45 591.00,729.00 C591.00,729.55 590.33,730.00 589.50,730.00 C588.67,730.00 588.00,729.55 588.00,729.00 ZM 370.02 687.88 C365.96,686.26 364.01,683.89 363.35,679.78 C362.82,676.48 362.28,675.81 359.79,675.31 C357.21,674.79 356.93,674.40 357.49,672.11 C358.45,668.23 360.73,665.13 364.18,663.03 C367.64,660.93 369.63,661.27 370.53,664.09 C371.12,665.95 373.50,665.99 470.32,665.76 C556.07,665.56 562.05,665.46 514.50,665.01 C484.25,664.73 461.30,664.24 463.50,663.92 C467.27,663.37 467.16,663.31 461.50,662.94 C458.20,662.72 471.48,662.30 491.00,662.00 C520.40,661.55 514.72,661.42 458.00,661.25 C420.33,661.13 389.95,661.36 390.50,661.77 C391.05,662.17 391.61,663.06 391.75,663.75 C391.93,664.65 390.12,665.00 385.25,664.98 C380.89,664.97 379.00,664.65 379.91,664.08 C381.00,663.38 380.78,663.08 378.91,662.73 C377.59,662.48 378.98,662.20 382.00,662.12 C385.96,662.01 387.08,661.70 386.00,661.00 C384.30,659.90 652.34,659.75 667.83,660.84 C676.99,661.49 677.21,661.57 680.58,665.24 C683.08,667.97 683.98,669.85 683.92,672.24 C683.88,674.03 683.62,674.94 683.34,674.25 C683.06,673.56 681.99,673.00 680.96,673.00 C679.58,673.00 678.93,673.98 678.46,676.75 C677.46,682.75 677.16,682.85 677.08,677.20 C677.02,672.98 676.50,671.41 674.55,669.45 L 672.09 667.00 L 642.30 667.15 C625.91,667.23 614.53,667.62 617.00,668.00 C621.35,668.68 621.28,668.70 615.00,668.83 C610.48,668.93 608.96,668.67 610.00,668.00 C611.12,667.27 610.62,667.03 608.00,667.03 C605.38,667.03 604.88,667.27 606.00,668.00 C607.04,668.67 605.22,668.98 600.00,669.00 C585.70,669.07 573.99,671.57 569.84,675.44 C567.52,677.60 567.02,677.73 565.94,676.42 C565.25,675.60 563.98,675.01 563.10,675.12 C562.22,675.23 560.20,674.78 558.61,674.13 C555.75,672.96 553.53,673.46 555.66,674.80 C557.90,676.21 557.61,679.48 555.04,681.75 C552.19,684.27 550.92,684.52 549.26,682.86 C548.42,682.02 547.71,682.14 546.49,683.36 C544.98,684.88 545.07,685.01 547.68,685.10 L 550.50 685.20 L 548.00 686.00 C545.67,686.75 545.73,686.82 549.00,687.04 C550.92,687.17 554.16,687.18 556.19,687.06 C558.23,686.94 560.70,687.31 561.69,687.89 C564.13,689.31 373.57,689.30 370.02,687.88 ZM 418.00 664.05 C418.00,663.52 415.19,662.94 411.75,662.74 C408.31,662.55 414.50,662.35 425.50,662.31 C436.50,662.27 444.71,662.44 443.74,662.69 C442.77,662.94 442.23,663.57 442.55,664.08 C442.88,664.61 439.84,664.99 435.31,664.98 C429.90,664.97 427.96,664.67 429.00,664.00 C430.10,663.29 429.38,663.03 426.31,663.02 C424.00,663.01 421.84,663.45 421.50,664.00 C420.71,665.27 418.00,665.31 418.00,664.05 ZM 396.36 652.55 C394.23,651.63 392.87,650.11 392.15,647.84 C390.47,642.58 388.24,632.03 387.47,625.75 C387.09,622.59 386.26,619.96 385.63,619.92 C385.01,619.87 383.26,619.75 381.75,619.64 C379.45,619.47 378.98,619.85 378.88,621.97 C378.82,623.36 378.34,622.03 377.82,619.00 C376.45,610.99 378.50,590.09 381.97,576.63 C385.15,564.31 388.79,553.83 390.23,552.89 C390.75,552.55 391.06,552.10 390.93,551.89 C390.37,551.01 393.23,544.00 394.14,544.00 C394.68,544.00 394.84,543.55 394.50,543.00 C394.16,542.45 394.39,542.00 395.00,542.00 C395.61,542.00 395.84,541.55 395.50,541.00 C395.16,540.45 395.30,540.00 395.82,540.00 C396.34,540.00 397.35,538.54 398.08,536.75 C398.81,534.96 400.06,533.01 400.86,532.40 C401.65,531.80 401.98,530.77 401.58,530.13 C401.14,529.42 401.38,529.06 402.18,529.23 C402.90,529.38 403.44,528.73 403.37,527.79 C403.29,526.85 403.69,526.17 404.24,526.29 C404.80,526.41 405.48,525.87 405.75,525.11 C406.09,524.18 405.84,523.98 404.98,524.52 C404.13,525.04 403.94,524.91 404.41,524.14 C404.81,523.49 405.50,523.19 405.95,523.47 C406.39,523.74 407.93,522.19 409.38,520.01 C410.82,517.83 413.09,515.33 414.44,514.45 C416.04,513.40 416.67,512.28 416.28,511.17 C415.95,510.25 416.00,509.78 416.38,510.12 C416.76,510.46 419.53,508.21 422.52,505.12 C426.58,500.93 427.96,499.98 427.98,501.40 C428.00,503.29 421.85,513.36 419.96,514.53 C419.41,514.86 419.19,515.49 419.45,515.92 C419.72,516.36 418.82,517.76 417.46,519.04 C415.29,521.08 412.26,528.59 413.22,529.55 C413.41,529.74 417.97,524.07 423.35,516.95 C433.22,503.88 443.94,491.59 462.41,472.12 C479.32,454.30 487.34,444.95 494.70,434.50 C503.09,422.57 512.02,406.58 511.94,403.62 C511.89,401.87 511.71,401.77 510.90,403.00 C508.10,407.27 499.00,424.57 499.00,425.63 C499.00,426.29 497.09,428.81 494.75,431.21 C492.41,433.61 488.48,437.94 486.00,440.83 C478.66,449.40 472.15,456.00 471.04,456.00 C469.77,456.00 469.67,453.75 470.89,452.45 C471.38,451.93 472.12,450.38 472.53,449.01 C473.24,446.68 473.17,446.61 471.39,447.99 C469.54,449.44 469.54,449.42 471.38,447.26 C472.42,446.04 473.62,445.26 474.04,445.53 C475.08,446.17 480.16,440.06 479.49,438.98 C479.20,438.52 479.49,437.81 480.14,437.41 C480.92,436.93 481.06,437.16 480.57,438.10 C480.16,438.87 480.73,438.38 481.84,437.01 C482.95,435.65 483.66,434.33 483.42,434.09 C483.18,433.85 483.82,432.71 484.84,431.57 C488.43,427.58 495.97,416.03 500.70,407.30 C503.65,401.85 505.59,399.17 505.80,400.25 C506.32,402.87 509.87,402.38 511.18,399.50 C511.81,398.12 512.73,397.00 513.22,397.00 C513.71,397.00 513.87,396.60 513.57,396.11 C513.26,395.61 513.62,393.70 514.36,391.86 C515.10,390.01 516.07,387.60 516.51,386.50 C516.95,385.40 517.23,383.83 517.12,383.00 C516.96,381.83 517.11,381.79 517.80,382.80 C518.49,383.83 518.97,383.74 520.09,382.39 C521.09,381.19 521.49,377.97 521.47,371.42 C521.45,366.32 521.73,362.34 522.10,362.56 C522.47,362.79 523.29,360.90 523.93,358.37 C525.19,353.35 524.38,343.80 522.89,346.15 C522.34,347.01 521.96,345.50 521.83,342.00 C521.72,338.98 521.58,335.15 521.51,333.50 C521.45,331.85 520.89,329.38 520.26,328.00 C519.14,325.54 519.13,325.55 519.06,328.89 C519.03,330.76 518.05,335.48 516.89,339.39 C509.49,364.24 490.46,383.44 465.55,391.18 C461.68,392.39 453.73,393.43 443.50,394.08 C424.63,395.27 416.84,397.25 408.13,403.07 C397.54,410.15 390.50,420.92 389.36,431.81 C388.53,439.77 389.31,442.69 392.23,442.58 C393.95,442.52 394.57,443.12 394.80,445.08 C395.07,447.39 394.80,447.63 392.30,447.27 C389.91,446.94 389.21,447.43 387.50,450.66 C385.32,454.78 377.93,460.85 371.26,464.00 C362.56,468.11 348.95,466.01 343.11,459.67 L 340.72 457.07 L 347.82 450.04 C351.73,446.17 355.42,441.99 356.02,440.75 C356.94,438.85 356.91,438.73 355.78,440.00 C353.00,443.14 341.46,449.19 334.07,451.39 C323.30,454.58 316.15,453.16 308.94,446.39 L 306.38 443.99 L 304.22 446.01 L 302.06 448.02 L 300.66 445.26 C299.44,442.88 297.00,435.08 295.40,428.50 C294.96,426.69 295.04,426.70 296.21,428.67 C297.36,430.61 297.71,430.69 299.43,429.43 C301.31,428.05 301.27,427.74 297.69,416.26 C295.68,409.79 293.74,403.22 293.38,401.66 C292.82,399.20 292.35,398.87 289.87,399.23 C287.14,399.63 287.00,399.47 287.00,395.83 C287.00,393.41 287.70,391.30 288.88,390.12 C291.05,387.95 292.41,388.48 293.49,391.92 C294.23,394.29 294.29,394.26 296.61,390.42 C297.91,388.26 299.56,386.05 300.28,385.50 C301.00,384.95 305.17,380.01 309.55,374.53 C313.92,369.05 318.17,363.85 319.00,362.98 C321.85,359.95 349.95,322.85 354.58,316.00 C356.25,313.52 359.18,309.25 361.09,306.50 C368.33,296.10 379.00,276.90 379.00,274.28 C379.00,273.96 378.13,274.48 377.06,275.44 C374.74,277.55 373.41,276.93 372.74,273.42 C372.15,270.36 373.94,263.84 375.16,264.60 C375.62,264.88 376.00,264.50 376.00,263.75 C376.00,263.00 376.63,261.51 377.41,260.45 C378.79,258.57 378.87,258.57 380.88,260.40 C383.10,262.40 382.99,262.53 385.41,255.48 C385.60,254.93 389.12,249.98 393.24,244.48 C403.80,230.38 418.81,214.50 430.50,205.05 C446.43,192.17 449.00,189.92 449.00,188.87 C449.00,188.33 448.56,188.15 448.02,188.49 C447.49,188.82 445.90,188.49 444.49,187.75 L 441.93 186.41 L 445.46 184.72 C448.96,183.05 449.00,183.06 449.08,185.27 C449.14,187.02 449.57,186.64 451.05,183.50 C455.39,174.35 451.77,142.26 445.57,134.90 C442.42,131.16 442.03,126.00 444.90,126.00 C445.94,126.00 449.21,127.62 452.15,129.60 C455.09,131.59 459.30,134.12 461.50,135.24 C466.63,137.85 469.55,140.27 480.16,150.67 C487.67,158.03 488.90,158.90 489.45,157.17 C489.79,156.08 490.82,154.58 491.73,153.84 C492.90,152.89 493.17,152.86 492.63,153.75 C492.20,154.46 492.38,155.00 493.05,155.00 C495.23,155.00 498.24,160.11 498.57,164.38 C498.76,166.72 499.37,169.84 499.93,171.31 C500.49,172.78 500.70,174.62 500.40,175.39 C499.72,177.18 503.77,185.26 504.97,184.52 C505.46,184.22 506.19,184.49 506.59,185.14 C507.04,185.87 506.88,186.04 506.15,185.60 C504.10,184.33 504.93,186.63 507.23,188.60 C509.44,190.48 509.45,190.48 507.98,188.50 C506.61,186.65 506.63,186.60 508.24,187.86 C509.20,188.61 509.75,189.60 509.47,190.05 C508.54,191.56 515.49,195.88 524.54,199.41 C545.18,207.47 554.41,212.28 568.50,222.32 C578.79,229.65 588.65,238.53 597.00,248.01 C610.36,263.17 609.49,262.37 609.64,259.55 C609.72,258.15 609.36,257.00 608.84,257.00 C608.31,257.00 608.20,257.56 608.59,258.25 C609.65,260.12 607.95,258.21 603.50,252.50 C601.36,249.75 595.32,243.00 590.07,237.50 C582.35,229.41 581.96,228.87 588.02,234.70 C593.84,240.30 595.86,241.69 597.11,240.98 C598.35,240.27 599.47,241.00 602.04,244.21 C603.88,246.49 604.84,248.02 604.19,247.62 C602.33,246.47 602.80,248.13 604.75,249.61 C605.91,250.49 606.06,250.95 605.19,250.97 C604.47,250.99 604.17,251.47 604.53,252.05 C604.98,252.78 605.58,252.76 606.49,252.01 C608.38,250.44 611.82,255.10 611.43,258.71 C611.25,260.34 611.86,262.34 612.89,263.50 C615.86,266.85 620.63,275.73 618.54,274.01 C617.11,272.85 617.28,273.63 619.34,277.69 C621.84,282.63 625.12,286.37 623.70,282.66 C623.35,281.75 623.30,281.00 623.60,281.00 C624.85,281.00 636.31,306.74 639.93,317.65 C649.14,345.45 652.49,369.61 651.69,402.50 C650.99,431.72 647.91,451.76 636.64,500.50 C630.56,526.81 628.81,539.02 628.26,558.83 C627.73,577.98 628.47,585.79 632.15,599.84 C634.48,608.73 639.84,619.69 644.35,624.77 C646.17,626.82 649.05,630.53 650.74,633.00 C652.44,635.47 656.34,639.96 659.41,642.97 C666.05,649.46 666.61,651.31 661.47,649.73 C658.31,648.76 657.78,648.87 656.41,650.82 C655.57,652.02 654.39,653.00 653.79,653.00 C653.18,653.00 653.43,652.18 654.35,651.17 C655.26,650.17 656.00,649.02 656.00,648.63 C656.00,647.09 646.69,638.07 645.72,638.67 C645.15,639.02 644.99,638.83 645.36,638.22 C645.73,637.63 644.87,635.43 643.46,633.34 C640.30,628.69 639.32,627.72 640.96,630.87 C641.85,632.57 641.87,633.04 641.04,632.52 C639.75,631.73 637.91,627.59 637.47,624.50 C636.91,620.56 631.11,609.13 629.14,608.08 C628.04,607.48 625.98,607.00 624.57,607.00 C623.15,607.00 621.10,606.10 620.00,605.00 C617.63,602.63 615.41,602.45 613.40,604.46 C611.60,606.26 609.00,605.40 609.00,603.02 C609.00,599.62 606.46,598.61 601.44,600.02 C598.47,600.85 597.23,601.63 597.87,602.27 C598.97,603.37 597.10,605.60 592.88,608.24 C591.09,609.35 589.95,609.55 589.24,608.84 C588.54,608.14 587.47,608.21 585.86,609.08 C584.56,609.78 581.12,610.48 578.21,610.64 C572.05,610.98 570.64,611.62 571.45,613.73 C571.77,614.57 571.52,615.87 570.89,616.63 C569.39,618.44 566.91,618.40 567.61,616.58 C568.36,614.62 564.70,612.70 563.15,614.25 C562.52,614.88 562.00,616.00 562.00,616.74 C562.00,617.47 561.24,619.29 560.30,620.79 C559.37,622.28 558.58,623.56 558.55,623.63 C558.52,623.69 557.54,624.05 556.36,624.41 C554.86,624.87 553.31,624.29 551.13,622.46 C547.81,619.67 546.55,619.79 545.71,622.99 C545.37,624.29 545.87,625.49 547.09,626.35 C548.87,627.60 548.90,627.98 547.52,632.59 C545.59,639.08 542.97,640.78 539.20,637.99 C535.82,635.49 530.94,634.47 529.96,636.06 C529.45,636.90 527.99,636.95 524.69,636.24 C520.86,635.43 519.69,635.57 517.32,637.13 C515.77,638.15 513.77,638.99 512.87,638.99 C510.57,639.00 508.72,641.57 508.90,644.50 C509.20,649.66 509.37,650.00 511.62,650.00 C512.88,650.00 515.03,650.51 516.41,651.14 C518.20,651.96 520.37,651.99 523.98,651.28 C526.78,650.73 529.29,650.66 529.59,651.14 C529.88,651.61 533.44,652.00 537.50,652.00 C541.56,652.00 545.16,652.45 545.50,653.00 C545.91,653.66 521.44,653.99 472.81,653.96 C413.08,653.93 398.92,653.67 396.36,652.55 ZM 498.11 648.75 C498.16,648.06 498.12,646.20 498.02,644.61 C497.85,642.12 498.12,641.80 499.93,642.27 C501.10,642.58 502.66,642.19 503.45,641.41 C504.22,640.63 506.01,640.00 507.43,640.00 C509.00,640.00 510.00,639.44 510.00,638.56 C510.00,636.31 507.96,635.61 506.29,637.28 C505.19,638.39 504.00,638.57 501.90,637.97 C500.18,637.48 498.79,637.54 498.42,638.12 C498.04,638.75 497.38,638.73 496.58,638.07 C494.38,636.24 491.64,639.27 491.57,643.62 C491.52,646.50 492.02,647.80 493.50,648.65 C496.22,650.22 497.98,650.25 498.11,648.75 ZM 590.19 600.79 C588.93,599.53 587.00,600.61 587.00,602.59 C587.00,603.79 587.41,603.85 589.11,602.94 C590.54,602.18 590.89,601.49 590.19,600.79 ZM 408.00 540.81 C408.00,538.68 405.56,540.81 404.85,543.57 L 404.09 546.50 L 406.05 544.14 C407.12,542.84 408.00,541.34 408.00,540.81 ZM 314.93 422.50 C315.01,424.47 316.64,422.53 320.68,415.65 C321.33,414.54 322.68,413.52 323.68,413.37 C326.19,413.00 329.22,409.01 328.46,407.09 C328.11,406.21 327.30,403.30 326.66,400.62 C325.24,394.65 322.52,392.49 317.56,393.42 C313.56,394.17 308.61,399.39 309.32,402.12 C309.58,403.10 309.31,404.06 308.73,404.26 C307.39,404.70 309.46,415.98 311.77,420.90 C313.17,423.87 313.46,424.06 314.11,422.40 C314.83,420.58 314.86,420.59 314.93,422.50 ZM 399.50 294.61 C401.71,293.77 406.80,293.07 410.88,293.04 C414.95,293.02 420.01,292.48 422.14,291.84 C430.12,289.45 437.08,280.92 439.99,269.98 C441.45,264.48 443.82,259.13 445.92,256.58 C447.24,254.98 447.25,254.80 446.00,255.50 C445.09,256.01 445.29,255.42 446.50,254.00 C447.60,252.71 447.89,252.02 447.13,252.46 C446.38,252.90 440.43,253.63 433.91,254.09 C427.39,254.54 420.13,255.42 417.77,256.04 C407.04,258.87 400.17,266.05 397.94,276.77 C397.31,279.80 395.55,285.36 394.02,289.10 C390.44,297.92 390.54,298.02 399.50,294.61 ZM 609.30 254.58 C608.31,253.25 607.11,252.53 606.64,252.99 C605.58,254.01 606.80,256.24 608.00,255.50 C608.47,255.21 609.14,255.42 609.49,255.98 C609.84,256.54 610.34,257.00 610.61,257.00 C610.87,257.00 610.28,255.91 609.30,254.58 ZM 603.04 249.54 C602.37,248.74 602.09,247.67 602.40,247.16 C602.72,246.65 602.31,245.67 601.49,244.99 C600.67,244.31 600.00,244.10 600.00,244.53 C600.00,244.96 599.01,244.45 597.80,243.40 C596.59,242.36 597.32,243.64 599.42,246.25 C601.52,248.86 603.47,251.00 603.74,251.00 C604.02,251.00 603.70,250.34 603.04,249.54 ZM 499.12 172.32 C497.94,170.30 497.66,170.95 498.62,173.46 C498.97,174.36 499.46,174.88 499.72,174.62 C499.97,174.36 499.71,173.33 499.12,172.32 ZM 580.75 622.31 C579.79,622.06 579.00,621.41 579.00,620.87 C579.00,620.33 579.42,620.14 579.93,620.46 C580.44,620.77 581.15,620.57 581.50,620.00 C582.33,618.66 584.00,619.70 584.00,621.56 C584.00,623.04 583.75,623.10 580.75,622.31 ZM 592.37 613.52 C592.00,612.55 592.49,611.34 593.62,610.49 C596.13,608.59 597.48,609.14 597.49,612.08 C597.50,615.00 593.38,616.16 592.37,613.52 ZM 657.06 546.00 C657.45,543.71 655.96,541.00 654.31,541.00 C653.50,541.00 653.02,540.44 653.25,539.76 C653.69,538.42 651.74,536.00 650.21,536.00 C648.14,536.00 648.04,526.82 650.00,518.01 C651.17,512.75 651.71,507.82 651.33,505.91 C650.87,503.60 651.02,502.89 651.84,503.40 C652.61,503.88 653.03,503.17 653.08,501.31 C653.23,496.42 653.78,493.20 657.99,472.61 C663.73,444.58 665.39,428.28 665.43,399.50 C665.48,370.25 664.26,359.19 658.45,336.36 C654.15,319.42 649.48,306.89 641.01,289.50 C617.63,241.48 580.47,206.70 535.64,190.84 C520.19,185.38 518.27,184.01 514.00,175.37 C512.08,171.47 509.83,167.46 509.00,166.45 C508.17,165.44 508.02,164.93 508.65,165.30 C509.28,165.68 515.27,166.22 521.97,166.49 C558.50,168.00 598.54,184.97 628.73,211.75 C633.25,215.77 636.69,218.37 636.37,217.53 C636.05,216.69 635.49,216.00 635.13,216.00 C634.77,216.00 633.96,215.16 633.32,214.14 C632.33,212.56 632.45,212.30 634.12,212.39 C635.19,212.45 636.44,213.09 636.89,213.82 C637.33,214.54 638.37,215.23 639.18,215.35 C640.00,215.47 642.43,216.95 644.58,218.64 C646.74,220.33 649.03,221.89 649.67,222.10 C651.67,222.78 663.77,237.97 671.50,249.50 C682.40,265.78 696.24,293.09 694.48,294.85 C694.22,295.12 694.00,294.78 694.00,294.11 C694.00,293.43 693.56,293.16 693.01,293.49 C692.42,293.86 692.28,293.38 692.67,292.30 C693.03,291.31 692.96,290.82 692.53,291.21 C692.09,291.61 690.88,291.47 689.84,290.91 C688.12,289.99 688.00,290.17 688.63,292.70 C689.02,294.24 690.63,299.06 692.21,303.41 C701.15,327.93 707.00,361.19 707.00,387.42 C707.00,421.35 698.64,459.71 683.97,493.08 C679.87,502.42 658.31,546.03 657.32,547.00 C657.04,547.27 656.92,546.83 657.06,546.00 ZM 433.23 492.82 C433.77,491.18 436.76,489.43 437.59,490.26 C438.55,491.21 436.09,494.00 434.29,494.00 C433.49,494.00 433.01,493.47 433.23,492.82 ZM 453.80 465.92 C458.94,460.50 462.45,458.61 461.22,461.92 C460.73,463.23 460.89,463.29 462.15,462.26 C463.92,460.82 465.11,461.56 464.32,463.60 C463.62,465.43 462.23,465.37 460.29,463.43 C458.86,462.00 458.25,462.29 453.61,466.68 L 448.50 471.50 L 453.80 465.92 ZM 615.65 265.59 C614.31,263.54 614.29,263.22 615.55,263.40 C616.36,263.52 617.58,264.22 618.26,264.96 C619.26,266.03 619.22,266.14 618.08,265.48 C617.03,264.88 616.82,265.10 617.30,266.34 C618.21,268.72 617.49,268.39 615.65,265.59 ZM 434.68 129.62 C433.74,127.17 433.82,123.00 434.81,123.00 C435.26,123.00 436.95,124.45 438.56,126.21 C440.18,127.98 440.81,128.90 439.97,128.27 C438.28,127.00 436.56,127.70 435.83,129.95 C435.46,131.10 435.22,131.03 434.68,129.62 ZM 392.00 295.62 C392.00,295.41 392.79,294.63 393.75,293.87 C395.34,292.63 395.37,292.66 394.13,294.25 C392.82,295.92 392.00,296.45 392.00,295.62 Z" fill="rgb(236,190,85)"/>
</g>
</svg>